<?xml version="1.0" encoding="UTF-8"?>
<svg version="1.1" xmlns="http://www.w3.org/2000/svg" width="512" height="512">
<path d="M0 0 C0.9740806 -0.00241442 1.9481612 -0.00482883 2.9517594 -0.00731641 C6.19443607 -0.01292291 9.43691307 -0.00431354 12.67958069 0.00431824 C15.01260939 0.00324464 17.34563782 0.00130482 19.67866516 -0.00143433 C25.99833935 -0.00627159 32.31794267 0.00135774 38.63760829 0.01151872 C44.57928764 0.01941999 50.52096135 0.01868084 56.462645 0.01824339 C68.2284914 0.0177436 79.99431053 0.02688445 91.76014709 0.04142761 C103.18007402 0.0555359 114.59997697 0.06259736 126.01991272 0.06193542 C126.72433535 0.06189547 127.42875799 0.06185551 128.15452676 0.06181435 C128.85772952 0.06177399 129.56093227 0.06173364 130.2854442 0.06169206 C142.63272962 0.06103777 154.98000518 0.06617823 167.32728767 0.07448387 C172.58683409 0.07802109 177.84637705 0.07984773 183.10592461 0.08037758 C189.28896564 0.08137894 195.47198135 0.08745855 201.65501404 0.09754372 C203.92949837 0.10047445 206.20398561 0.10169293 208.47847176 0.10111618 C211.57112435 0.10062854 214.66370504 0.10625084 217.75634766 0.11352539 C218.66653764 0.11197679 219.57672763 0.11042819 220.51449913 0.10883266 C226.70537207 0.13305865 226.70537207 0.13305865 228.93373108 1.24723816 C229.80008613 15.72499362 226.73980019 27.01757335 220.93373108 40.24723816 C220.27373108 40.24723816 219.61373108 40.24723816 218.93373108 40.24723816 C218.87185608 41.23723816 218.87185608 41.23723816 218.80873108 42.24723816 C217.5467892 46.57389604 215.00364499 49.96560605 211.93373108 53.24723816 C211.27373108 53.24723816 210.61373108 53.24723816 209.93373108 53.24723816 C209.75584045 53.91883972 209.57794983 54.59044128 209.39466858 55.28239441 C207.27365431 59.58680572 204.01089559 62.40583569 200.55873108 65.68473816 C196.0636242 69.97747912 192.32561062 73.99984464 188.93373108 79.24723816 C186.82826233 81.29411316 186.82826233 81.29411316 184.74623108 82.99723816 C181.89656939 85.26732716 181.89656939 85.26732716 179.93373108 88.24723816 C179.27373108 88.24723816 178.61373108 88.24723816 177.93373108 88.24723816 C177.60373108 89.23723816 177.27373108 90.22723816 176.93373108 91.24723816 C176.27373108 91.24723816 175.61373108 91.24723816 174.93373108 91.24723816 C174.60373108 92.23723816 174.27373108 93.22723816 173.93373108 94.24723816 C173.27373108 94.24723816 172.61373108 94.24723816 171.93373108 94.24723816 C171.60373108 95.23723816 171.27373108 96.22723816 170.93373108 97.24723816 C170.27373108 97.24723816 169.61373108 97.24723816 168.93373108 97.24723816 C168.60373108 98.23723816 168.27373108 99.22723816 167.93373108 100.24723816 C167.27373108 100.24723816 166.61373108 100.24723816 165.93373108 100.24723816 C165.84599426 100.8224823 165.75825745 101.39772644 165.66786194 101.99040222 C164.73198329 104.86744319 163.32698208 106.22645441 161.18763733 108.35661316 C160.43289124 109.11071472 159.67814514 109.86481628 158.90052795 110.64176941 C158.10710999 111.4190741 157.31369202 112.19637878 156.49623108 112.99723816 C155.7066803 113.7900116 154.91712952 114.58278503 154.10365295 115.39958191 C148.20064023 121.24723816 148.20064023 121.24723816 145.93373108 121.24723816 C145.87185608 121.82473816 145.80998108 122.40223816 145.74623108 122.99723816 C144.60934575 126.145536 142.56465879 127.2281541 139.93373108 129.24723816 C139.27373108 130.07223816 138.61373108 130.89723816 137.93373108 131.74723816 C135.82331387 134.38525967 133.59050466 136.17365878 130.93373108 138.24723816 C129.24499229 139.89153645 127.58067593 141.56108033 125.93373108 143.24723816 C125.39748108 143.77317566 124.86123108 144.29911316 124.30873108 144.84098816 C121.29087639 147.80495258 118.4002596 150.81770203 115.64906311 154.03190613 C112.20937917 157.9842391 108.59250205 161.70216714 104.86341858 165.38005066 C104.21930023 166.02038239 103.57518188 166.66071411 102.9115448 167.32044983 C100.87972203 169.34019766 98.84466233 171.35663235 96.80873108 173.37223816 C94.1156715 176.03855182 91.42604976 178.70826651 88.73841858 181.38005066 C88.12997101 181.98019989 87.52152344 182.58034912 86.89463806 183.19868469 C84.15205714 185.92558252 81.55308576 188.65676572 79.13343811 191.67643738 C78.40753479 192.52480164 77.68163147 193.37316589 76.93373108 194.24723816 C76.27373108 194.24723816 75.61373108 194.24723816 74.93373108 194.24723816 C74.60373108 195.23723816 74.27373108 196.22723816 73.93373108 197.24723816 C73.27373108 197.24723816 72.61373108 197.24723816 71.93373108 197.24723816 C71.60373108 198.23723816 71.27373108 199.22723816 70.93373108 200.24723816 C70.27373108 200.24723816 69.61373108 200.24723816 68.93373108 200.24723816 C68.60373108 201.23723816 68.27373108 202.22723816 67.93373108 203.24723816 C67.27373108 203.24723816 66.61373108 203.24723816 65.93373108 203.24723816 C65.60373108 204.23723816 65.27373108 205.22723816 64.93373108 206.24723816 C64.27373108 206.24723816 63.61373108 206.24723816 62.93373108 206.24723816 C62.60373108 207.23723816 62.27373108 208.22723816 61.93373108 209.24723816 C61.27373108 209.24723816 60.61373108 209.24723816 59.93373108 209.24723816 C59.93373108 209.90723816 59.93373108 210.56723816 59.93373108 211.24723816 C59.27373108 211.24723816 58.61373108 211.24723816 57.93373108 211.24723816 C57.60373108 212.23723816 57.27373108 213.22723816 56.93373108 214.24723816 C56.27373108 214.24723816 55.61373108 214.24723816 54.93373108 214.24723816 C54.60373108 215.23723816 54.27373108 216.22723816 53.93373108 217.24723816 C53.27373108 217.24723816 52.61373108 217.24723816 51.93373108 217.24723816 C51.60373108 218.23723816 51.27373108 219.22723816 50.93373108 220.24723816 C50.27373108 220.24723816 49.61373108 220.24723816 48.93373108 220.24723816 C48.60373108 221.23723816 48.27373108 222.22723816 47.93373108 223.24723816 C47.27373108 223.24723816 46.61373108 223.24723816 45.93373108 223.24723816 C45.60373108 224.23723816 45.27373108 225.22723816 44.93373108 226.24723816 C44.27373108 226.24723816 43.61373108 226.24723816 42.93373108 226.24723816 C42.60373108 227.23723816 42.27373108 228.22723816 41.93373108 229.24723816 C41.27373108 229.24723816 40.61373108 229.24723816 39.93373108 229.24723816 C39.60373108 230.23723816 39.27373108 231.22723816 38.93373108 232.24723816 C38.27373108 232.24723816 37.61373108 232.24723816 36.93373108 232.24723816 C36.60373108 233.23723816 36.27373108 234.22723816 35.93373108 235.24723816 C35.27373108 235.24723816 34.61373108 235.24723816 33.93373108 235.24723816 C33.60373108 236.23723816 33.27373108 237.22723816 32.93373108 238.24723816 C32.27373108 238.24723816 31.61373108 238.24723816 30.93373108 238.24723816 C30.86697678 238.80131348 30.80022247 239.35538879 30.73144531 239.92625427 C29.60095188 243.21547355 27.62567767 244.92932751 25.17030334 247.38298035 C24.67593781 247.88099655 24.18157227 248.37901276 23.67222595 248.89212036 C22.03883945 250.53360256 20.39485838 252.16399403 18.75013733 253.79411316 C17.61241414 254.93131775 16.47520888 256.0690407 15.33850098 257.20726013 C12.95655814 259.5891133 10.56953402 261.96571578 8.17860413 264.33854675 C5.1087192 267.38570614 2.05007131 270.44385585 -1.00509548 273.50576401 C-3.35094285 275.8549461 -5.70173667 278.1991251 -8.05417061 280.5417099 C-9.18426619 281.66794752 -10.31300584 282.79554736 -11.440382 283.92450714 C-13.01319756 285.49769195 -14.59232629 287.0642422 -16.17344666 288.6290741 C-17.07199875 289.5230188 -17.97055084 290.4169635 -18.89633179 291.33799744 C-21.06626892 293.24723816 -21.06626892 293.24723816 -23.06626892 293.24723816 C-23.72626892 294.89723816 -24.38626892 296.54723816 -25.06626892 298.24723816 C-25.72626892 298.24723816 -26.38626892 298.24723816 -27.06626892 298.24723816 C-27.72626892 299.56723816 -28.38626892 300.88723816 -29.06626892 302.24723816 C-29.72626892 302.24723816 -30.38626892 302.24723816 -31.06626892 302.24723816 C-31.06626892 302.90723816 -31.06626892 303.56723816 -31.06626892 304.24723816 C-32.7284216 305.58619448 -34.39590499 306.91853958 -36.06626892 308.24723816 C-37.42454863 309.8936378 -38.75881143 311.56019623 -40.06626892 313.24723816 C-42.19126892 315.55973816 -42.19126892 315.55973816 -44.06626892 317.24723816 C-44.72626892 317.24723816 -45.38626892 317.24723816 -46.06626892 317.24723816 C-46.06626892 317.90723816 -46.06626892 318.56723816 -46.06626892 319.24723816 C-47.38626892 319.57723816 -48.70626892 319.90723816 -50.06626892 320.24723816 C-50.06626892 320.90723816 -50.06626892 321.56723816 -50.06626892 322.24723816 C-54.17799452 322.27189562 -58.2896917 322.29007775 -62.401474 322.3021698 C-63.8012212 322.30720895 -65.20096312 322.31404032 -66.60069275 322.32267761 C-68.60872669 322.33476136 -70.6167985 322.33993623 -72.62486267 322.34489441 C-73.83456726 322.35013123 -75.04427185 322.35536804 -76.29063416 322.36076355 C-79.06626892 322.24723816 -79.06626892 322.24723816 -80.06626892 321.24723816 C-80.19255893 318.61083856 -80.25500294 316.00223774 -80.26939392 313.36442566 C-80.27509399 312.557966 -80.28079407 311.75150635 -80.28666687 310.92060852 C-80.29614441 309.20055967 -80.30266171 307.48049243 -80.3065033 305.76042175 C-80.3160497 303.18145977 -80.3469752 300.60335099 -80.37876892 298.02458191 C-80.46275609 284.86245578 -79.31213314 272.48758801 -74.06626892 260.24723816 C-73.78396423 259.57692566 -73.50165955 258.90661316 -73.21080017 258.21598816 C-72.50856203 256.55435425 -71.78931829 254.89992242 -71.06626892 253.24723816 C-70.40626892 253.24723816 -69.74626892 253.24723816 -69.06626892 253.24723816 C-68.73626892 251.59723816 -68.40626892 249.94723816 -68.06626892 248.24723816 C-67.40626892 248.24723816 -66.74626892 248.24723816 -66.06626892 248.24723816 C-65.96314392 247.69036316 -65.86001892 247.13348816 -65.75376892 246.55973816 C-64.92448484 243.77032806 -63.72327836 241.63333176 -62.06626892 239.24723816 C-61.40626892 239.24723816 -60.74626892 239.24723816 -60.06626892 239.24723816 C-59.80740906 238.49869568 -59.54854919 237.7501532 -59.28184509 236.97892761 C-58.02584717 234.15640085 -56.82310169 232.6671098 -54.61705017 230.54020691 C-53.93320251 229.87053894 -53.24935486 229.20087097 -52.54478455 228.51091003 C-51.82999939 227.82577332 -51.11521423 227.1406366 -50.37876892 226.43473816 C-44.43252417 220.68386226 -44.43252417 220.68386226 -38.87486267 214.56364441 C-33.55195633 208.36788162 -27.62138818 202.73541205 -21.81626892 196.99723816 C-19.47480519 194.68245416 -17.13674309 192.36430956 -14.80064392 190.04411316 C-14.2693689 189.52113647 -13.73809387 188.99815979 -13.1907196 188.45933533 C-11.07256032 186.35523368 -9.10140647 184.29512421 -7.33287048 181.88493347 C-6.91489197 181.34449402 -6.49691345 180.80405457 -6.06626892 180.24723816 C-5.40626892 180.24723816 -4.74626892 180.24723816 -4.06626892 180.24723816 C-3.73626892 179.25723816 -3.40626892 178.26723816 -3.06626892 177.24723816 C-2.40626892 177.24723816 -1.74626892 177.24723816 -1.06626892 177.24723816 C-1.06626892 176.58723816 -1.06626892 175.92723816 -1.06626892 175.24723816 C0.59588376 173.90828184 2.26336715 172.57593674 3.93373108 171.24723816 C4.59373108 170.42223816 5.25373108 169.59723816 5.93373108 168.74723816 C8.03692743 166.11824273 10.31272651 164.34404181 12.93373108 162.24723816 C13.65560608 161.33973816 14.37748108 160.43223816 15.12123108 159.49723816 C15.71935608 158.75473816 16.31748108 158.01223816 16.93373108 157.24723816 C17.59373108 157.24723816 18.25373108 157.24723816 18.93373108 157.24723816 C19.16060608 156.71098816 19.38748108 156.17473816 19.62123108 155.62223816 C21.38943197 152.42263654 23.47043311 149.95686593 25.93373108 147.24723816 C26.59373108 147.24723816 27.25373108 147.24723816 27.93373108 147.24723816 C28.15029358 146.70583191 28.36685608 146.16442566 28.58998108 145.60661316 C30.39873105 142.43078472 32.85096907 140.03995734 35.43373108 137.49723816 C35.93259827 136.9906366 36.43146545 136.48403503 36.94544983 135.96208191 C40.68031969 132.24723816 40.68031969 132.24723816 42.93373108 132.24723816 C43.19154358 131.66458191 43.44935608 131.08192566 43.71498108 130.48161316 C45.03207125 128.06694785 46.48461492 126.42983638 48.43373108 124.49723816 C49.04216858 123.88364441 49.65060608 123.27005066 50.27748108 122.63786316 C51.93373108 121.24723816 51.93373108 121.24723816 53.93373108 121.24723816 C54.19114075 120.66313171 54.44855042 120.07902527 54.71376038 119.47721863 C56.03869127 117.05538177 57.47832128 115.48953947 59.45326233 113.56755066 C60.49256897 112.54467957 60.49256897 112.54467957 61.5528717 111.50114441 C62.63858459 110.44733582 62.63858459 110.44733582 63.74623108 109.37223816 C69.46018587 103.85099331 69.46018587 103.85099331 74.73451233 97.91911316 C76.51749258 95.75293466 78.12306353 94.08878682 80.30873108 92.37223816 C84.9937851 88.47988308 88.77370741 83.86800082 92.63685608 79.18083191 C93.16794983 78.54274597 93.69904358 77.90466003 94.24623108 77.24723816 C94.71673889 76.66973816 95.1872467 76.09223816 95.67201233 75.49723816 C96.93373108 74.24723816 96.93373108 74.24723816 98.93373108 74.24723816 C98.93373108 73.58723816 98.93373108 72.92723816 98.93373108 72.24723816 C100.30873108 70.62223816 100.30873108 70.62223816 101.93373108 69.24723816 C102.59373108 69.24723816 103.25373108 69.24723816 103.93373108 69.24723816 C104.24310608 68.60786316 104.55248108 67.96848816 104.87123108 67.30973816 C105.93373108 65.24723816 105.93373108 65.24723816 106.93373108 64.24723816 C106.23487636 64.24300622 105.53602163 64.23877428 104.81598949 64.2344141 C87.72666316 64.13062444 70.63737495 64.02191977 53.54811382 63.9078989 C45.28351821 63.85287258 37.01891831 63.79944477 28.75428772 63.74992371 C21.54183243 63.70670298 14.329405 63.66033679 7.11699325 63.61035961 C3.30628346 63.58405939 -0.5044219 63.55922117 -4.31516457 63.53816414 C-19.91994271 63.45096598 -35.49184652 63.31726066 -51.06626892 62.24723816 C-54.88650765 54.6067607 -51.25587698 42.92838324 -49.06626892 35.24723816 C-43.8705842 21.0051662 -35.53305357 10.06581526 -21.81626892 3.25505066 C-14.60288402 0.61150903 -7.63447893 -0.04389618 0 0 Z " fill="#E5E6EA" transform="translate(165.06626892089844,94.75276184082031)"/>
<path d="M0 0 C1.47906892 -0.02689216 2.95827483 -0.04634621 4.4375 -0.0625 C5.26121094 -0.07410156 6.08492187 -0.08570313 6.93359375 -0.09765625 C9 0 9 0 10 1 C10.12023868 2.90997827 10.17022674 4.82441186 10.19287109 6.73803711 C10.20893402 7.96699203 10.22499695 9.19594696 10.24154663 10.46214294 C10.2530409 11.81720283 10.26364829 13.17227048 10.2734375 14.52734375 C10.27876118 15.2089966 10.28408485 15.89064945 10.28956985 16.59295845 C10.31634354 20.20950319 10.33569411 23.82601311 10.35009766 27.44262695 C10.36337293 30.42341238 10.39109737 33.40350276 10.43212891 36.3840332 C10.4817751 39.99035461 10.50625909 43.59605118 10.51332474 47.20269966 C10.51999207 48.57050958 10.53509493 49.93830808 10.55921555 51.30592155 C10.70270057 59.94290013 10.06540466 66.7856201 5 74 C2.25 76.5 2.25 76.5 0 78 C-0.33 78.66 -0.66 79.32 -1 80 C-1.66 80 -2.32 80 -3 80 C-3.33 80.99 -3.66 81.98 -4 83 C-5.70703125 84.68359375 -5.70703125 84.68359375 -7.8125 86.4375 C-10.11265868 88.37967334 -12.27115592 90.2782916 -14.375 92.4375 C-16 94 -16 94 -18 94 C-18.226875 94.53625 -18.45375 95.0725 -18.6875 95.625 C-20.45570089 98.82460161 -22.53670203 101.29037223 -25 104 C-25.66 104 -26.32 104 -27 104 C-27.38865234 104.89525391 -27.38865234 104.89525391 -27.78515625 105.80859375 C-29.09929975 108.1791227 -30.34471698 109.361298 -32.4375 111.0625 C-36.66398543 114.61429877 -40.50247728 118.46142274 -44.31811523 122.44360352 C-45.50941513 123.66523596 -46.75110708 124.83731013 -48 126 C-48.66 126 -49.32 126 -50 126 C-50.66 127.65 -51.32 129.3 -52 131 C-52.66 131 -53.32 131 -54 131 C-54 131.66 -54 132.32 -54 133 C-55.66666667 134.33333333 -57.33333333 135.66666667 -59 137 C-59.70125 137.886875 -60.4025 138.77375 -61.125 139.6875 C-64.37084747 143.76829216 -68.51429067 146.81651274 -72.57421875 150.046875 C-75.00015186 151.92860787 -75.00015186 151.92860787 -77 154 C-76.284553 154.00423194 -75.56910601 154.00846388 -74.8319788 154.01282406 C-57.44853535 154.11598899 -40.0651346 154.2246052 -22.68176365 154.33933926 C-14.27540561 154.39469067 -5.86904333 154.44817576 2.53735352 154.49731445 C9.86170596 154.54013286 17.1860269 154.58640482 24.51033074 154.63687855 C28.39088937 154.66349845 32.27144168 154.68835191 36.15203667 154.70907402 C39.80042618 154.72861063 43.44875564 154.75274527 47.09709167 154.78049088 C49.08286013 154.79437123 51.06866123 154.80330079 53.05445862 154.81211853 C54.2254007 154.82190735 55.39634277 154.83169617 56.60276794 154.84178162 C57.62687995 154.84823417 58.65099195 154.85468672 59.70613766 154.8613348 C62 155 62 155 63 156 C64.04831918 172.82186584 58.15181185 187.57096473 47.39453125 200.37890625 C41.82699553 206.47322349 35.66506336 210.09740202 28 213 C27.30792041 213.27102193 26.61584082 213.54204386 25.90278912 213.82127857 C15.9518507 217.10924433 5.53616608 216.396235 -4.8112793 216.34057617 C-7.01977019 216.33972901 -9.22826192 216.34020677 -11.43675232 216.34190369 C-17.40705968 216.34276159 -23.37718485 216.32516888 -29.34745002 216.30418181 C-35.59611055 216.28538091 -41.84477563 216.28366188 -48.09346008 216.28010559 C-58.57332436 216.27185183 -69.05312657 216.25313517 -79.53295898 216.22631836 C-90.32234365 216.19873832 -101.1117102 216.17752411 -111.90112305 216.16479492 C-112.5673201 216.16400675 -113.23351715 216.16321858 -113.91990199 216.16240653 C-117.26235686 216.15849112 -120.60481186 216.15470685 -123.94726694 216.15097082 C-151.63155757 216.11964449 -179.31577409 216.06690345 -207 216 C-207 211.91621923 -206.19287411 208.87684087 -205 205 C-204.34 205 -203.68 205 -203 205 C-202.76659912 204.2790918 -202.53319824 203.55818359 -202.29272461 202.81542969 C-200.76458335 199.4872852 -198.90807532 197.53570739 -196.31640625 194.953125 C-195.38892578 194.02628906 -194.46144531 193.09945312 -193.50585938 192.14453125 C-192.78112427 191.43224365 -192.78112427 191.43224365 -192.04174805 190.70556641 C-190.56178605 189.24929748 -189.09569894 187.78005711 -187.63085938 186.30859375 C-180.40060931 179.13353644 -180.40060931 179.13353644 -177 178 C-175.04861814 176.37384845 -173.93556183 174.88701123 -172.67114258 172.66992188 C-170.93622163 169.89810369 -169.0771724 167.83388331 -166.76171875 165.53125 C-165.94123047 164.71269531 -165.12074219 163.89414062 -164.27539062 163.05078125 C-163.42138672 162.20902344 -162.56738281 161.36726562 -161.6875 160.5 C-160.84509766 159.65824219 -160.00269531 158.81648437 -159.13476562 157.94921875 C-147.10086737 146 -147.10086737 146 -144 146 C-143.67 145.01 -143.34 144.02 -143 143 C-142.34 143 -141.68 143 -141 143 C-140.9371582 142.45037598 -140.87431641 141.90075195 -140.80957031 141.33447266 C-139.64292463 137.97033936 -137.55184836 136.16255946 -135.046875 133.6484375 C-134.54963928 133.1483316 -134.05240356 132.64822571 -133.5401001 132.13296509 C-132.48793942 131.07876622 -131.43199378 130.02833329 -130.37255859 128.98144531 C-128.75910508 127.38401466 -127.16222701 125.77127378 -125.56640625 124.15625 C-124.54002268 123.13184956 -123.5127085 122.10838051 -122.484375 121.0859375 C-121.55334961 120.1582959 -120.62232422 119.2306543 -119.66308594 118.27490234 C-117.12347927 116.10548037 -115.15787592 114.99854066 -112 114 C-112 113.34 -112 112.68 -112 112 C-111.34 112 -110.68 112 -110 112 C-109.66125854 110.93108521 -109.66125854 110.93108521 -109.31567383 109.84057617 C-107.70353988 106.35993441 -105.65562241 104.26712535 -102.94921875 101.55078125 C-102.45339798 101.0520903 -101.95757721 100.55339935 -101.44673157 100.03959656 C-100.40054502 98.99137624 -99.35059117 97.94690393 -98.29711914 96.90600586 C-96.69251599 95.31746578 -95.10454501 93.71355918 -93.51757812 92.10742188 C-92.49575213 91.08757843 -91.47299584 90.06866606 -90.44921875 89.05078125 C-89.52455811 88.12950439 -88.59989746 87.20822754 -87.6472168 86.2590332 C-85.09789154 84.08353688 -83.1099124 83.12060329 -80 82 C-78.81200218 80.10839705 -78.81200218 80.10839705 -78 78 C-74.00527041 72.70237399 -69.15191577 68.02971985 -64.5 63.3125 C-63.96656982 62.76601807 -63.43313965 62.21953613 -62.88354492 61.65649414 C-59.18368539 57.94874218 -55.29117317 54.99965503 -51 52 C-48.93897879 49.67398476 -48.93897879 49.67398476 -47 47 C-42.47595361 41.41802276 -37.440017 36.33521098 -32.375 31.25 C-31.72942139 30.5998291 -31.08384277 29.9496582 -30.41870117 29.27978516 C-21.1089348 20 -21.1089348 20 -18 20 C-17.67 19.01 -17.34 18.02 -17 17 C-16.34 17 -15.68 17 -15 17 C-14.938125 16.38125 -14.87625 15.7625 -14.8125 15.125 C-14 13 -14 13 -11.4375 11.75 C-10.633125 11.5025 -9.82875 11.255 -9 11 C-9 10.34 -9 9.68 -9 9 C-7.34614767 7.65080468 -5.678298 6.31866272 -4 5 C-3.34 4.01 -2.68 3.02 -2 2 C-1.34 2 -0.68 2 0 2 C0 1.34 0 0.68 0 0 Z " fill="#47B870" transform="translate(364,201)"/>
<path d="M0 0 C1.47906892 -0.02689216 2.95827483 -0.04634621 4.4375 -0.0625 C5.26121094 -0.07410156 6.08492187 -0.08570313 6.93359375 -0.09765625 C9 0 9 0 10 1 C10.12023868 2.90997827 10.17022674 4.82441186 10.19287109 6.73803711 C10.20893402 7.96699203 10.22499695 9.19594696 10.24154663 10.46214294 C10.2530409 11.81720283 10.26364829 13.17227048 10.2734375 14.52734375 C10.27876118 15.2089966 10.28408485 15.89064945 10.28956985 16.59295845 C10.31634354 20.20950319 10.33569411 23.82601311 10.35009766 27.44262695 C10.36337293 30.42341238 10.39109737 33.40350276 10.43212891 36.3840332 C10.4817751 39.99035461 10.50625909 43.59605118 10.51332474 47.20269966 C10.51999207 48.57050958 10.53509493 49.93830808 10.55921555 51.30592155 C10.70270057 59.94290013 10.06540466 66.7856201 5 74 C2.25 76.5 2.25 76.5 0 78 C-0.33 78.66 -0.66 79.32 -1 80 C-1.66 80 -2.32 80 -3 80 C-3.33 80.99 -3.66 81.98 -4 83 C-5.70703125 84.68359375 -5.70703125 84.68359375 -7.8125 86.4375 C-10.11265868 88.37967334 -12.27115592 90.2782916 -14.375 92.4375 C-16 94 -16 94 -18 94 C-18.226875 94.53625 -18.45375 95.0725 -18.6875 95.625 C-20.45570089 98.82460161 -22.53670203 101.29037223 -25 104 C-25.66 104 -26.32 104 -27 104 C-27.38865234 104.89525391 -27.38865234 104.89525391 -27.78515625 105.80859375 C-29.09929975 108.1791227 -30.34471698 109.361298 -32.4375 111.0625 C-36.66398543 114.61429877 -40.50247728 118.46142274 -44.31811523 122.44360352 C-45.50941513 123.66523596 -46.75110708 124.83731013 -48 126 C-48.66 126 -49.32 126 -50 126 C-50.66 127.65 -51.32 129.3 -52 131 C-52.66 131 -53.32 131 -54 131 C-54 131.66 -54 132.32 -54 133 C-55.66666667 134.33333333 -57.33333333 135.66666667 -59 137 C-59.70125 137.886875 -60.4025 138.77375 -61.125 139.6875 C-64.37084747 143.76829216 -68.51429067 146.81651274 -72.57421875 150.046875 C-75.00015186 151.92860787 -75.00015186 151.92860787 -77 154 C-76.284553 154.00423194 -75.56910601 154.00846388 -74.8319788 154.01282406 C-57.44853535 154.11598899 -40.0651346 154.2246052 -22.68176365 154.33933926 C-14.27540561 154.39469067 -5.86904333 154.44817576 2.53735352 154.49731445 C9.86170596 154.54013286 17.1860269 154.58640482 24.51033074 154.63687855 C28.39088937 154.66349845 32.27144168 154.68835191 36.15203667 154.70907402 C39.80042618 154.72861063 43.44875564 154.75274527 47.09709167 154.78049088 C49.08286013 154.79437123 51.06866123 154.80330079 53.05445862 154.81211853 C54.2254007 154.82190735 55.39634277 154.83169617 56.60276794 154.84178162 C57.62687995 154.84823417 58.65099195 154.85468672 59.70613766 154.8613348 C62 155 62 155 63 156 C64.04831918 172.82186584 58.15181185 187.57096473 47.39453125 200.37890625 C41.82699553 206.47322349 35.66506336 210.09740202 28 213 C27.30792041 213.27102193 26.61584082 213.54204386 25.90278912 213.82127857 C15.9518507 217.10924433 5.53616608 216.396235 -4.8112793 216.34057617 C-7.01977019 216.33972901 -9.22826192 216.34020677 -11.43675232 216.34190369 C-17.40705968 216.34276159 -23.37718485 216.32516888 -29.34745002 216.30418181 C-35.59611055 216.28538091 -41.84477563 216.28366188 -48.09346008 216.28010559 C-58.57332436 216.27185183 -69.05312657 216.25313517 -79.53295898 216.22631836 C-90.32234365 216.19873832 -101.1117102 216.17752411 -111.90112305 216.16479492 C-112.5673201 216.16400675 -113.23351715 216.16321858 -113.91990199 216.16240653 C-117.26235686 216.15849112 -120.60481186 216.15470685 -123.94726694 216.15097082 C-151.63155757 216.11964449 -179.31577409 216.06690345 -207 216 C-207 211.91621923 -206.19287411 208.87684087 -205 205 C-204.34 205 -203.68 205 -203 205 C-202.76659912 204.2790918 -202.53319824 203.55818359 -202.29272461 202.81542969 C-200.76458335 199.4872852 -198.90807532 197.53570739 -196.31640625 194.953125 C-195.38892578 194.02628906 -194.46144531 193.09945312 -193.50585938 192.14453125 C-192.78112427 191.43224365 -192.78112427 191.43224365 -192.04174805 190.70556641 C-190.56178605 189.24929748 -189.09569894 187.78005711 -187.63085938 186.30859375 C-180.40060931 179.13353644 -180.40060931 179.13353644 -177 178 C-175.04861814 176.37384845 -173.93556183 174.88701123 -172.67114258 172.66992188 C-170.93622163 169.89810369 -169.0771724 167.83388331 -166.76171875 165.53125 C-165.94123047 164.71269531 -165.12074219 163.89414062 -164.27539062 163.05078125 C-163.42138672 162.20902344 -162.56738281 161.36726562 -161.6875 160.5 C-160.84509766 159.65824219 -160.00269531 158.81648437 -159.13476562 157.94921875 C-147.10086737 146 -147.10086737 146 -144 146 C-143.67 145.01 -143.34 144.02 -143 143 C-142.34 143 -141.68 143 -141 143 C-140.9371582 142.45037598 -140.87431641 141.90075195 -140.80957031 141.33447266 C-139.64292463 137.97033936 -137.55184836 136.16255946 -135.046875 133.6484375 C-134.54963928 133.1483316 -134.05240356 132.64822571 -133.5401001 132.13296509 C-132.48793942 131.07876622 -131.43199378 130.02833329 -130.37255859 128.98144531 C-128.75910508 127.38401466 -127.16222701 125.77127378 -125.56640625 124.15625 C-124.54002268 123.13184956 -123.5127085 122.10838051 -122.484375 121.0859375 C-121.55334961 120.1582959 -120.62232422 119.2306543 -119.66308594 118.27490234 C-117.12347927 116.10548037 -115.15787592 114.99854066 -112 114 C-112 113.34 -112 112.68 -112 112 C-111.34 112 -110.68 112 -110 112 C-109.66125854 110.93108521 -109.66125854 110.93108521 -109.31567383 109.84057617 C-107.70353988 106.35993441 -105.65562241 104.26712535 -102.94921875 101.55078125 C-102.45339798 101.0520903 -101.95757721 100.55339935 -101.44673157 100.03959656 C-100.40054502 98.99137624 -99.35059117 97.94690393 -98.29711914 96.90600586 C-96.69251599 95.31746578 -95.10454501 93.71355918 -93.51757812 92.10742188 C-92.49575213 91.08757843 -91.47299584 90.06866606 -90.44921875 89.05078125 C-89.52455811 88.12950439 -88.59989746 87.20822754 -87.6472168 86.2590332 C-85.09789154 84.08353688 -83.1099124 83.12060329 -80 82 C-78.81200218 80.10839705 -78.81200218 80.10839705 -78 78 C-74.00527041 72.70237399 -69.15191577 68.02971985 -64.5 63.3125 C-63.96656982 62.76601807 -63.43313965 62.21953613 -62.88354492 61.65649414 C-59.18368539 57.94874218 -55.29117317 54.99965503 -51 52 C-48.93897879 49.67398476 -48.93897879 49.67398476 -47 47 C-42.47595361 41.41802276 -37.440017 36.33521098 -32.375 31.25 C-31.72942139 30.5998291 -31.08384277 29.9496582 -30.41870117 29.27978516 C-21.1089348 20 -21.1089348 20 -18 20 C-17.67 19.01 -17.34 18.02 -17 17 C-16.34 17 -15.68 17 -15 17 C-14.938125 16.38125 -14.87625 15.7625 -14.8125 15.125 C-14 13 -14 13 -11.4375 11.75 C-10.633125 11.5025 -9.82875 11.255 -9 11 C-9 10.34 -9 9.68 -9 9 C-7.34614767 7.65080468 -5.678298 6.31866272 -4 5 C-3.34 4.01 -2.68 3.02 -2 2 C-1.34 2 -0.68 2 0 2 C0 1.34 0 0.68 0 0 Z M2 1 C1.62875 1.928125 1.62875 1.928125 1.25 2.875 C-0.26089308 5.44351824 -1.36935331 5.6987694 -4 7 C-5.45253772 8.10000575 -6.8693048 9.24856802 -8.25 10.4375 C-8.95640625 11.03433594 -9.6628125 11.63117188 -10.390625 12.24609375 C-12.33804805 13.97167442 -12.33804805 13.97167442 -12 17 C-12.61875 17.2475 -13.2375 17.495 -13.875 17.75 C-16.15001528 18.82396211 -16.15001528 18.82396211 -17 21.0625 C-17.33 21.701875 -17.66 22.34125 -18 23 C-18.58265625 23.12117188 -19.1653125 23.24234375 -19.765625 23.3671875 C-24.6843663 24.76025759 -28.37619349 29.54927082 -32 33 C-32.80179688 33.76054687 -33.60359375 34.52109375 -34.4296875 35.3046875 C-37.30273656 38.06955363 -37.30273656 38.06955363 -40 41 C-40 41.66 -40 42.32 -40 43 C-41.32 43.66 -42.64 44.32 -44 45 C-44 46.32 -44 47.64 -44 49 C-44.52851563 49.22171875 -45.05703125 49.4434375 -45.6015625 49.671875 C-48.8595732 51.47598516 -51.57103293 53.82509496 -54.375 56.25 C-54.98134277 56.77287598 -55.58768555 57.29575195 -56.21240234 57.83447266 C-60.8288219 61.8686411 -65.27124756 66.05942822 -69.625 70.375 C-70.20427246 70.94508789 -70.78354492 71.51517578 -71.38037109 72.10253906 C-73.91917781 74.66002996 -75.97746962 76.96393285 -77.8984375 80.0390625 C-80.20412514 83.28759639 -82.51086144 84.96811083 -85.71679688 87.25 C-90.27542055 90.74403491 -94.21346252 94.92752896 -98.25 99 C-99.13429688 99.8765625 -100.01859375 100.753125 -100.9296875 101.65625 C-105.90495073 106.63470313 -105.90495073 106.63470313 -110.109375 112.25 C-112.2878574 115.41870167 -114.61128722 117.03853141 -117.71240234 119.24560547 C-122.29468417 122.75982929 -126.25402474 126.96808253 -130.3125 131.0625 C-131.20517578 131.94744141 -132.09785156 132.83238281 -133.01757812 133.74414062 C-134.30245117 135.03288086 -134.30245117 135.03288086 -135.61328125 136.34765625 C-136.38454346 137.12117432 -137.15580566 137.89469238 -137.95043945 138.69165039 C-140.00060226 141.00067831 -141.43798643 143.34732695 -143 146 C-144.84050963 147.66735091 -146.7451626 149.26496644 -148.6875 150.8125 C-154.28475545 155.3914849 -159.50334717 160.27086508 -164.625 165.375 C-165.31166748 166.05280518 -165.99833496 166.73061035 -166.70581055 167.42895508 C-169.36146601 170.09984058 -171.68516779 172.45873674 -173.5859375 175.7265625 C-175.12824577 178.20618519 -176.7091637 179.18747706 -179.15820312 180.69580078 C-183.45649669 183.73947579 -187.04393511 187.71733289 -190.75 191.4375 C-191.61238281 192.28376953 -192.47476563 193.13003906 -193.36328125 194.00195312 C-194.18699219 194.82501953 -195.01070312 195.64808594 -195.859375 196.49609375 C-196.98037598 197.61262329 -196.98037598 197.61262329 -198.12402344 198.75170898 C-200.0740273 201.08871908 -201.04076751 203.12893753 -202 206 C-202.66 206 -203.32 206 -204 206 C-205.52174919 208.67082039 -205.52174919 208.67082039 -205 215 C-132.07 215 -59.14 215 16 215 C16 214.34 16 213.68 16 213 C16.64066406 212.96261719 17.28132812 212.92523438 17.94140625 212.88671875 C23.60006141 212.45662723 27.92173813 211.53913094 33 209 C33 208.34 33 207.68 33 207 C34.98 206.67 36.96 206.34 39 206 C39.33 205.01 39.66 204.02 40 203 C40.598125 202.87625 41.19625 202.7525 41.8125 202.625 C45.04190851 201.70231185 46.05478371 199.67467239 48 197 C48.7425 196.13375 49.485 195.2675 50.25 194.375 C52.29659952 192.0891564 52.29659952 192.0891564 52 189 C52.66 189 53.32 189 54 189 C54.33 187.02 54.66 185.04 55 183 C55.66 183 56.32 183 57 183 C57.33 180.36 57.66 177.72 58 175 C58.66 175 59.32 175 60 175 C61.40055535 168.89758025 62.34201376 163.27025224 62 157 C60.26827142 155.26827142 57.92497773 155.85654588 55.56480408 155.84178162 C54.38544785 155.8319928 53.20609161 155.82220398 51.99099731 155.81211853 C50.6854892 155.80636307 49.37998108 155.8006076 48.03491211 155.79467773 C46.65546878 155.78510443 45.27602841 155.77509468 43.89659119 155.76467896 C40.14059077 155.73756446 36.3845777 155.71659046 32.62853312 155.69667697 C28.7073743 155.67485764 24.78625474 155.64744919 20.86512756 155.62062073 C13.43491238 155.57063886 6.00467546 155.52572049 -1.42558235 155.48259836 C-9.88254427 155.43327284 -18.3394668 155.37833739 -26.79639065 155.32291877 C-44.19755738 155.20901442 -61.59876064 155.10219389 -79 155 C-77.25 151.125 -77.25 151.125 -75 150 C-75 149.34 -75 148.68 -75 148 C-74.40703125 147.89558594 -73.8140625 147.79117188 -73.203125 147.68359375 C-70.67589628 146.8994359 -69.5769782 145.94945476 -67.75 144.0625 C-67.22921875 143.53785156 -66.7084375 143.01320313 -66.171875 142.47265625 C-64.792444 141.05284165 -64.792444 141.05284165 -65 139 C-64.42507813 138.73832031 -63.85015625 138.47664062 -63.2578125 138.20703125 C-57.56102467 135.16151665 -53.10639023 131.14363816 -51 125 C-50.443125 124.73832031 -49.88625 124.47664063 -49.3125 124.20703125 C-46.09284106 122.52649981 -43.77137247 120.06107913 -41.25 117.5 C-40.74339844 117.00113281 -40.23679687 116.50226563 -39.71484375 115.98828125 C-36.87194401 113.46938363 -36.87194401 113.46938363 -36 110 C-35.443125 109.773125 -34.88625 109.54625 -34.3125 109.3125 C-31.32038397 107.61427198 -29.38399465 105.49235804 -27 103 C-26.30777344 102.32839844 -25.61554688 101.65679687 -24.90234375 100.96484375 C-24.17144531 100.25457031 -23.44054687 99.54429687 -22.6875 98.8125 C-21.99011719 98.13832031 -21.29273438 97.46414063 -20.57421875 96.76953125 C-18.77844303 95.14569097 -18.77844303 95.14569097 -19 93 C-18.42765625 92.7525 -17.8553125 92.505 -17.265625 92.25 C-14.64989389 90.80683801 -12.85226544 89.11783778 -10.75 87 C-10.04359375 86.29875 -9.3371875 85.5975 -8.609375 84.875 C-6.78289601 83.15889232 -6.78289601 83.15889232 -7 81 C-6.41605469 80.73960937 -5.83210937 80.47921875 -5.23046875 80.2109375 C-2.85663306 78.92216506 -1.22485946 77.5249146 0.6875 75.625 C1.59048828 74.74714844 1.59048828 74.74714844 2.51171875 73.8515625 C4.10135013 71.87391086 4.5905426 70.4785821 5 68 C5.66 68 6.32 68 7 68 C8.05866606 64.54166246 8.12073782 61.36891098 8.11352539 57.76269531 C8.11344986 56.50169006 8.11337433 55.24068481 8.11329651 53.94146729 C8.10819028 52.57035279 8.1029743 51.19923869 8.09765625 49.828125 C8.09579028 48.42136689 8.09436722 47.01460812 8.09336853 45.60784912 C8.08955744 41.91219273 8.0797392 38.21657587 8.06866455 34.52093506 C8.05842014 30.74703506 8.05386442 26.97312865 8.04882812 23.19921875 C8.03811564 15.79946118 8.02105616 8.39973614 8 1 C6.02 1 4.04 1 2 1 Z " fill="#4F45DF" transform="translate(364,201)"/>
<path d="M0 0 C0.495 0.99 0.495 0.99 1 2 C-3.29971763 7.56434046 -3.29971763 7.56434046 -6.54296875 9.58203125 C-11.72576707 12.9227314 -15.86980648 17.58228851 -20.1875 21.9375 C-21.54004883 23.27844727 -21.54004883 23.27844727 -22.91992188 24.64648438 C-23.78552734 25.51466797 -24.65113281 26.38285156 -25.54296875 27.27734375 C-26.32696045 28.06359131 -27.11095215 28.84983887 -27.91870117 29.65991211 C-29.98403104 31.98204545 -31.42431056 34.33313117 -33 37 C-35.04989101 38.87434786 -37.09491865 40.63279 -39.25 42.375 C-44.80317447 47.00031347 -50.06758661 51.83641905 -55.1875 56.9375 C-55.82268555 57.56382324 -56.45787109 58.19014648 -57.11230469 58.83544922 C-59.58760411 61.32614396 -61.71303608 63.48346495 -63.42578125 66.56640625 C-65.41323115 69.6388164 -67.81950218 71.19270952 -70.77099609 73.30419922 C-74.79129992 76.36280058 -78.26529657 79.9777269 -81.8125 83.5625 C-82.93688477 84.6752832 -82.93688477 84.6752832 -84.08398438 85.81054688 C-84.80521484 86.53435547 -85.52644531 87.25816406 -86.26953125 88.00390625 C-86.91510986 88.65174072 -87.56068848 89.2995752 -88.22583008 89.96704102 C-90.12205821 92.0118128 -90.12205821 92.0118128 -91.6081543 94.74975586 C-92.29711792 95.86362671 -92.29711792 95.86362671 -93 97 C-93.66 97 -94.32 97 -95 97 C-95.33 99.97 -95.66 102.94 -96 106 C-21.42 105.67 53.16 105.34 130 105 C125.44192709 107.27903645 121.96654737 107.27405363 117.01507568 107.24050903 C116.09694226 107.24221788 115.17880883 107.24392673 114.23285317 107.24568737 C111.14962275 107.24898735 108.06660889 107.23797011 104.98339844 107.22705078 C102.77593999 107.22648678 100.56848117 107.22680301 98.36102295 107.22793579 C92.36141843 107.22851073 86.36189353 107.21673358 80.36230755 107.20278788 C74.09491566 107.19030401 67.82752204 107.18911187 61.56011963 107.18673706 C51.03843905 107.18122273 40.51678315 107.16872161 29.99511719 107.15087891 C19.15787909 107.13252017 8.32064894 107.11836363 -2.51660156 107.10986328 C-3.18463768 107.10933783 -3.85267379 107.10881239 -4.54095343 107.10827102 C-7.8923028 107.10566094 -11.24365223 107.10313352 -14.5950017 107.10064721 C-42.39668818 107.07972966 -70.19834204 107.04454034 -98 107 C-98 102.91621923 -97.19287411 99.87684087 -96 96 C-95.34 96 -94.68 96 -94 96 C-93.76659912 95.2790918 -93.53319824 94.55818359 -93.29272461 93.81542969 C-91.76458335 90.4872852 -89.90807532 88.53570739 -87.31640625 85.953125 C-86.38892578 85.02628906 -85.46144531 84.09945312 -84.50585938 83.14453125 C-84.02270264 82.66967285 -83.5395459 82.19481445 -83.04174805 81.70556641 C-81.56178605 80.24929748 -80.09569894 78.78005711 -78.63085938 77.30859375 C-71.40060931 70.13353644 -71.40060931 70.13353644 -68 69 C-66.04861814 67.37384845 -64.93556183 65.88701123 -63.67114258 63.66992188 C-61.93622163 60.89810369 -60.0771724 58.83388331 -57.76171875 56.53125 C-56.94123047 55.71269531 -56.12074219 54.89414062 -55.27539062 54.05078125 C-54.42138672 53.20902344 -53.56738281 52.36726563 -52.6875 51.5 C-51.84509766 50.65824219 -51.00269531 49.81648438 -50.13476562 48.94921875 C-38.10086737 37 -38.10086737 37 -35 37 C-34.67 36.01 -34.34 35.02 -34 34 C-33.34 34 -32.68 34 -32 34 C-31.9371582 33.45037598 -31.87431641 32.90075195 -31.80957031 32.33447266 C-30.64292463 28.97033936 -28.55184836 27.16255946 -26.046875 24.6484375 C-25.54963928 24.1483316 -25.05240356 23.64822571 -24.5401001 23.13296509 C-23.48793942 22.07876622 -22.43199378 21.02833329 -21.37255859 19.98144531 C-19.75910508 18.38401466 -18.16222701 16.77127378 -16.56640625 15.15625 C-15.54002268 14.13184956 -14.5127085 13.10838051 -13.484375 12.0859375 C-12.55334961 11.1582959 -11.62232422 10.2306543 -10.66308594 9.27490234 C-8.12347927 7.10548037 -6.15787592 5.99854066 -3 5 C-3 4.34 -3 3.68 -3 3 C-2.34 3 -1.68 3 -1 3 C-0.67 2.01 -0.34 1.02 0 0 Z " fill="#4F3CE9" transform="translate(255,310)"/>
<path d="M0 0 C0.495 1.485 0.495 1.485 1 3 C0.32195312 3.54527344 -0.35609375 4.09054688 -1.0546875 4.65234375 C-18.14743965 17.93235047 -18.14743965 17.93235047 -32.0625 34.1875 C-33.94291617 36.91713637 -35.36102794 38.13284299 -37.9921875 40.0546875 C-43.47800036 44.24112773 -48.23904782 49.01675553 -53.0625 53.9375 C-53.92810547 54.81212891 -54.79371094 55.68675781 -55.68554688 56.58789062 C-57.79506075 58.72071405 -59.89971873 60.85809096 -62 63 C-62 58.81032697 -60.28732622 57.90000776 -57.36328125 54.96484375 C-56.88682663 54.48551895 -56.41037201 54.00619415 -55.91947937 53.51234436 C-54.90842275 52.49924539 -53.89356424 51.48992865 -52.87524414 50.48413086 C-51.32535932 48.95022673 -49.79202083 47.401101 -48.25976562 45.84960938 C-47.2743973 44.86622483 -46.28809804 43.88377203 -45.30078125 42.90234375 C-44.40528564 42.01023193 -43.50979004 41.11812012 -42.5871582 40.19897461 C-40.06969072 38.05923415 -38.066192 37.11297355 -35 36 C-33.81200218 34.10839705 -33.81200218 34.10839705 -33 32 C-29.00527041 26.70237399 -24.15191577 22.02971985 -19.5 17.3125 C-18.96656982 16.76601807 -18.43313965 16.21953613 -17.88354492 15.65649414 C-14.18363563 11.94869231 -10.30050285 8.9880454 -6 6 C-5.236875 5.236875 -4.47375 4.47375 -3.6875 3.6875 C-3.130625 3.130625 -2.57375 2.57375 -2 2 C-1.34 2 -0.68 2 0 2 C0 1.34 0 0.68 0 0 Z " fill="#4F40E5" transform="translate(319,247)"/>
<path d="M0 0 C0.33 0 0.66 0 1 0 C0.41951292 12.53852091 -5.91216546 21.43969513 -15.046875 29.89453125 C-21.43718398 34.94287534 -29.04257385 38.31669831 -37 40 C-39.9375 39.625 -39.9375 39.625 -42 39 C-42 38.67 -42 38.34 -42 38 C-41.35933594 37.87882812 -40.71867187 37.75765625 -40.05859375 37.6328125 C-34.95071067 36.64320773 -29.97749731 35.51489049 -25 34 C-25 33.34 -25 32.68 -25 32 C-24.030625 31.71125 -23.06125 31.4225 -22.0625 31.125 C-18.89335797 30.35785318 -18.89335797 30.35785318 -18 28 C-16.9171875 27.443125 -16.9171875 27.443125 -15.8125 26.875 C-11.18076405 23.78717604 -7.76188762 19.28566286 -6 14 C-5.34 14 -4.68 14 -4 14 C-3.67 12.02 -3.34 10.04 -3 8 C-2.34 8 -1.68 8 -1 8 C-0.67 5.36 -0.34 2.72 0 0 Z " fill="#4F4BDA" transform="translate(422,376)"/>
<path d="M0 0 C0.33 0.99 0.66 1.98 1 3 C0.195625 3.61875 -0.60875 4.2375 -1.4375 4.875 C-4.03874519 6.74164041 -4.03874519 6.74164041 -5 9 C-9.5 12 -9.5 12 -12 12 C-12 11.34 -12 10.68 -12 10 C-7.52941176 6 -7.52941176 6 -5 6 C-4.67 5.01 -4.34 4.02 -4 3 C-1.9375 2.3125 -1.9375 2.3125 0 2 C0 1.34 0 0.68 0 0 Z " fill="#4E4FD6" transform="translate(351,215)"/>
<path d="M0 0 C0.33 0.66 0.66 1.32 1 2 C-3.43076923 7.78461538 -3.43076923 7.78461538 -6.3125 8.875 C-6.869375 8.91625 -7.42625 8.9575 -8 9 C-8 8.34 -8 7.68 -8 7 C-6.35 6.34 -4.7 5.68 -3 5 C-3 4.34 -3 3.68 -3 3 C-2.34 3 -1.68 3 -1 3 C-0.67 2.01 -0.34 1.02 0 0 Z " fill="#4F46E0" transform="translate(255,310)"/>
</svg>
