<svg width="512" height="512" viewBox="0 0 512 512" fill="none" xmlns="http://www.w3.org/2000/svg">
<mask id="path-1-inside-1_0_1" fill="white">
<path d="M369.076 201.283C369.561 201.27 370.046 201.257 370.546 201.244C371.858 201.41 371.858 201.41 372.688 202.025C373.593 203.212 373.564 203.913 373.562 205.398C373.565 205.907 373.568 206.416 373.57 206.941C373.566 207.499 373.561 208.057 373.556 208.633C373.557 209.221 373.558 209.809 373.559 210.415C373.561 212.366 373.552 214.317 373.542 216.267C373.54 217.62 373.539 218.973 373.539 220.326C373.537 223.164 373.53 226.003 373.518 228.841C373.504 232.482 373.498 236.122 373.496 239.762C373.494 242.557 373.489 245.352 373.483 248.147C373.48 249.489 373.478 250.832 373.476 252.174C373.472 254.05 373.466 255.926 373.458 257.802C373.457 258.358 373.456 258.914 373.456 259.488C373.453 260 373.45 260.512 373.447 261.039C373.446 261.483 373.444 261.926 373.443 262.383C373.373 263.687 373.157 264.896 372.87 266.168C372.536 266.168 372.202 266.168 371.858 266.168C371.691 267.336 371.524 268.505 371.352 269.709C371.018 269.709 370.685 269.709 370.34 269.709C370.174 270.544 370.007 271.379 369.835 272.239C369.501 272.239 369.167 272.239 368.823 272.239C368.656 272.907 368.489 273.575 368.317 274.263C367.983 274.263 367.649 274.263 367.305 274.263C367.138 274.763 366.971 275.264 366.799 275.78C366.465 275.78 366.131 275.78 365.787 275.78C365.62 276.281 365.453 276.782 365.281 277.298C364.947 277.298 364.613 277.298 364.269 277.298C364.102 277.799 363.936 278.3 363.763 278.816C363.43 278.816 363.096 278.816 362.752 278.816C362.585 279.317 362.418 279.818 362.246 280.334C361.912 280.334 361.578 280.334 361.234 280.334C361.067 280.835 360.9 281.335 360.728 281.851C358.985 283.369 358.985 283.369 357.692 283.369C357.692 283.703 357.692 284.037 357.692 284.381C356.851 285.058 356.008 285.733 355.163 286.405C354.829 286.822 354.495 287.24 354.151 287.67C353.087 289 351.936 289.897 350.609 290.958C349.92 291.789 349.244 292.632 348.586 293.488C347.764 294.405 347.764 294.405 347.068 295.005C346.734 295.005 346.4 295.005 346.056 295.005C345.876 295.435 345.876 295.435 345.693 295.873C344.902 297.283 343.933 298.22 342.768 299.337C341.489 300.569 340.467 301.618 339.479 303.1C339.145 303.1 338.811 303.1 338.467 303.1C338.3 303.601 338.133 304.102 337.961 304.618C337.627 304.618 337.294 304.618 336.95 304.618C336.783 305.119 336.616 305.62 336.444 306.136C335.598 306.97 335.598 306.97 334.546 307.843C333.286 308.907 332.079 309.968 330.942 311.163C329.867 312.207 329.867 312.207 328.855 312.207C328.855 312.541 328.855 312.875 328.855 313.219C328.014 313.896 327.17 314.57 326.325 315.242C325.991 315.66 325.657 316.077 325.313 316.507C324.249 317.837 323.098 318.735 321.772 319.796C321.438 320.213 321.104 320.63 320.76 321.06C319.696 322.391 318.545 323.288 317.219 324.349C316.671 325.038 316.671 325.038 316.112 325.74C315.809 326.116 315.507 326.492 315.195 326.879C314.861 326.879 314.527 326.879 314.183 326.879C314.011 327.286 314.011 327.286 313.835 327.701C312.941 329.319 311.888 330.567 310.642 331.938C310.308 331.938 309.974 331.938 309.63 331.938C309.463 332.439 309.296 332.94 309.124 333.456C308.79 333.456 308.456 333.456 308.112 333.456C307.945 333.956 307.778 334.457 307.606 334.973C307.272 334.973 306.938 334.973 306.594 334.973C306.427 335.474 306.26 335.975 306.088 336.491C305.754 336.491 305.42 336.491 305.076 336.491C304.909 336.992 304.742 337.493 304.57 338.009C304.237 338.009 303.903 338.009 303.559 338.009C303.392 338.51 303.225 339.011 303.053 339.527C302.719 339.527 302.385 339.527 302.041 339.527C301.874 340.028 301.707 340.528 301.535 341.044C301.201 341.044 300.867 341.044 300.523 341.044C300.523 341.378 300.523 341.712 300.523 342.056C299.598 342.841 299.598 342.841 298.373 343.732C296.599 345.066 295.316 346.379 293.946 348.127C291.211 350.151 291.211 350.151 289.899 350.151C289.732 350.652 289.565 351.153 289.393 351.669C289.059 351.669 288.725 351.669 288.381 351.669C288.214 352.17 288.047 352.671 287.875 353.187C287.541 353.187 287.207 353.187 286.863 353.187C286.628 353.656 286.628 353.656 286.389 354.135C286.041 354.831 285.693 355.526 285.345 356.222C285.64 356.222 285.935 356.221 286.239 356.22C303.704 356.186 321.169 356.16 338.634 356.145C340.729 356.143 342.825 356.141 344.92 356.139C345.546 356.138 345.546 356.138 346.185 356.138C352.946 356.131 359.707 356.119 366.469 356.105C373.403 356.091 380.337 356.082 387.271 356.079C391.552 356.077 395.833 356.071 400.114 356.058C403.047 356.05 405.98 356.048 408.913 356.05C410.607 356.051 412.301 356.048 413.995 356.041C415.829 356.034 417.663 356.035 419.497 356.04C420.036 356.035 420.574 356.031 421.13 356.026C421.864 356.031 421.864 356.031 422.613 356.035C423.036 356.035 423.46 356.034 423.896 356.034C425.246 356.268 425.695 356.643 426.498 357.74C426.664 359.353 426.664 359.353 426.624 361.281C426.619 361.617 426.613 361.952 426.608 362.297C426.544 365.176 426.325 368.035 425.992 370.894C425.658 370.894 425.324 370.894 424.98 370.894C424.996 371.692 424.996 371.692 425.012 372.507C424.986 374.095 424.846 375.431 424.474 376.965C424.14 376.965 423.806 376.965 423.462 376.965C423.295 378.468 423.129 379.97 422.957 381.518C422.623 381.518 422.289 381.518 421.945 381.518C421.778 382.687 421.611 383.856 421.439 385.06C421.105 385.06 420.771 385.06 420.427 385.06C420.26 386.061 420.093 387.063 419.921 388.095C419.587 388.095 419.253 388.095 418.909 388.095C418.742 389.097 418.575 390.099 418.403 391.131C418.069 391.131 417.735 391.131 417.391 391.131C417.329 391.538 417.266 391.945 417.202 392.364C417.097 392.792 416.993 393.22 416.885 393.66C416.385 393.911 416.385 393.911 415.874 394.166C415.707 394.667 415.54 395.168 415.368 395.684C415.034 395.684 414.7 395.684 414.356 395.684C414.189 396.185 414.022 396.686 413.85 397.202C413.516 397.202 413.182 397.202 412.838 397.202C412.692 397.494 412.546 397.786 412.395 398.087C412.208 398.463 412.02 398.839 411.826 399.226C411.689 399.544 411.551 399.862 411.409 400.19C410.706 401.442 409.903 402.205 408.822 403.146C408.299 403.612 408.299 403.612 407.765 404.087C406.767 404.791 406.767 404.791 405.249 404.791C405.082 405.292 404.915 405.792 404.743 406.308C403.751 407.121 403.751 407.121 402.53 407.921C402.129 408.189 401.729 408.457 401.316 408.733C400.19 409.344 400.19 409.344 398.672 409.344C398.672 409.678 398.672 410.012 398.672 410.356C397.777 410.696 396.881 411.033 395.984 411.368C395.486 411.556 394.987 411.743 394.473 411.937C393.107 412.38 393.107 412.38 391.589 412.38C391.589 412.713 391.589 413.047 391.589 413.391C390.087 413.558 388.584 413.725 387.036 413.897C387.036 414.231 387.036 414.565 387.036 414.909C385.033 415.076 383.029 415.243 380.965 415.415C380.965 415.749 380.965 416.083 380.965 416.427C376.508 417.071 372.058 417.002 367.567 416.994C366.661 416.994 365.756 416.994 364.85 416.995C362.369 416.996 359.887 416.994 357.405 416.992C354.727 416.989 352.048 416.99 349.37 416.991C344.731 416.991 340.093 416.989 335.454 416.986C328.747 416.982 322.041 416.981 315.334 416.98C304.452 416.979 293.571 416.976 282.69 416.971C272.12 416.966 261.551 416.963 250.981 416.961C250.329 416.961 249.678 416.96 249.006 416.96C245.737 416.96 242.468 416.959 239.199 416.958C212.084 416.953 184.968 416.944 157.853 416.933C157.853 416.432 157.853 415.931 157.853 415.415C157.519 415.415 157.185 415.415 156.841 415.415C156.841 414.914 156.841 414.413 156.841 413.897C157.175 413.897 157.509 413.897 157.853 413.897C157.905 413.303 157.957 412.708 158.011 412.095C158.272 409.939 158.941 408.261 159.876 406.308C160.21 406.308 160.544 406.308 160.888 406.308C161.003 406.048 161.118 405.787 161.236 405.518C162.748 402.71 164.424 400.67 166.959 398.72C167.46 398.094 167.46 398.094 167.971 397.455C169.035 396.125 170.187 395.227 171.513 394.166C172.013 393.54 172.013 393.54 172.524 392.902C173.589 391.571 174.74 390.674 176.066 389.613C176.567 388.987 176.567 388.987 177.078 388.348C178.142 387.018 179.293 386.121 180.619 385.06C181.12 384.434 181.12 384.434 181.631 383.795C182.703 382.455 183.763 381.483 185.173 380.506C185.673 380.506 186.174 380.506 186.69 380.506C186.857 380.006 187.024 379.505 187.196 378.989C187.53 378.989 187.864 378.989 188.208 378.989C188.375 378.488 188.542 377.987 188.714 377.471C189.048 377.471 189.382 377.471 189.726 377.471C189.893 376.97 190.06 376.469 190.232 375.953C190.566 375.953 190.9 375.953 191.244 375.953C191.244 375.452 191.244 374.951 191.244 374.435C192.063 373.569 192.911 372.73 193.773 371.906C194.191 371.394 194.608 370.883 195.038 370.356C196.219 368.969 197.414 367.974 198.832 366.846C199.333 366.22 199.333 366.22 199.844 365.582C200.908 364.252 202.06 363.354 203.386 362.293C203.887 361.667 203.887 361.667 204.398 361.028C205.462 359.698 206.613 358.801 207.939 357.74C208.402 357.145 208.402 357.145 208.874 356.538C209.974 355.196 211.085 354.238 212.461 353.187C213.903 352.065 215.28 350.969 216.54 349.645C216.874 349.311 217.208 348.977 217.552 348.633C217.886 348.633 218.219 348.633 218.563 348.633C218.73 348.132 218.897 347.632 219.069 347.115C219.403 347.115 219.737 347.115 220.081 347.115C220.248 346.615 220.415 346.114 220.587 345.598C220.921 345.598 221.255 345.598 221.599 345.598C221.766 345.097 221.933 344.596 222.105 344.08C222.439 344.08 222.773 344.08 223.117 344.08C223.117 343.579 223.117 343.078 223.117 342.562C223.936 341.669 224.761 340.856 225.646 340.033C228.063 337.681 228.063 337.681 230.263 335.131C231.302 333.85 232.456 332.966 233.741 331.938C234.242 331.312 234.242 331.312 234.753 330.673C235.817 329.343 236.968 328.445 238.294 327.384C238.628 326.967 238.962 326.55 239.306 326.12C240.37 324.79 241.522 323.892 242.848 322.831C243.14 322.445 243.432 322.059 243.733 321.661C245.364 319.713 247.316 318.173 249.425 316.76C249.759 316.76 250.093 316.76 250.437 316.76C250.604 316.259 250.771 315.758 250.943 315.242C251.276 315.242 251.61 315.242 251.954 315.242C252.121 314.741 252.288 314.241 252.46 313.725C252.794 313.725 253.128 313.725 253.472 313.725C253.663 313.302 253.663 313.302 253.858 312.871C254.586 311.511 255.451 310.378 256.413 309.171C256.75 308.743 257.087 308.316 257.435 307.875C258.551 306.619 259.739 305.649 261.061 304.618C261.395 304.201 261.729 303.783 262.073 303.353C263.137 302.023 264.288 301.125 265.614 300.065C265.948 299.647 266.282 299.23 266.626 298.8C267.69 297.47 268.842 296.572 270.168 295.511C270.502 295.094 270.835 294.677 271.18 294.247C272.244 292.916 273.395 292.019 274.721 290.958C275.013 290.572 275.305 290.186 275.606 289.788C277.237 287.84 279.189 286.3 281.298 284.887C281.632 284.887 281.966 284.887 282.31 284.887C282.477 284.386 282.644 283.885 282.816 283.369C283.15 283.369 283.484 283.369 283.828 283.369C283.995 282.868 284.162 282.367 284.334 281.851C284.667 281.851 285.001 281.851 285.345 281.851C285.536 281.429 285.536 281.429 285.731 280.998C286.459 279.638 287.324 278.504 288.286 277.298C288.623 276.87 288.96 276.442 289.308 276.002C290.425 274.746 291.612 273.776 292.934 272.745C293.268 272.327 293.602 271.91 293.946 271.48C295.01 270.15 296.161 269.252 297.488 268.191C297.821 267.774 298.155 267.357 298.499 266.927C299.563 265.597 300.715 264.699 302.041 263.638C302.349 263.242 302.656 262.845 302.974 262.437C304.41 260.688 306.093 259.463 307.891 258.105C309.183 257.085 309.183 257.085 310.199 255.67C310.512 255.294 310.825 254.919 311.147 254.532C311.648 254.532 312.149 254.532 312.665 254.532C312.832 254.031 312.999 253.53 313.171 253.014C313.505 253.014 313.839 253.014 314.183 253.014C314.35 252.513 314.517 252.012 314.689 251.496C315.023 251.496 315.357 251.496 315.701 251.496C315.868 250.995 316.035 250.494 316.207 249.978C316.541 249.978 316.875 249.978 317.219 249.978C317.385 249.477 317.552 248.977 317.724 248.461C318.058 248.461 318.392 248.461 318.736 248.461C318.736 247.96 318.736 247.459 318.736 246.943C319.555 246.049 320.381 245.237 321.266 244.413C323.682 242.062 323.682 242.062 325.882 239.512C326.921 238.231 328.076 237.346 329.361 236.318C329.695 235.901 330.029 235.484 330.373 235.054C331.437 233.723 332.588 232.826 333.914 231.765C334.217 231.379 334.519 230.993 334.831 230.595C336.355 228.723 338.15 227.252 339.985 225.694C340.32 225.397 340.654 225.099 340.999 224.793C341.311 224.516 341.624 224.24 341.946 223.955C342.226 223.705 342.506 223.455 342.795 223.198C343.527 222.658 343.527 222.658 344.538 222.658C344.705 222.158 344.872 221.657 345.044 221.141C345.378 221.141 345.712 221.141 346.056 221.141C346.223 220.64 346.39 220.139 346.562 219.623C346.896 219.623 347.23 219.623 347.574 219.623C347.741 219.122 347.908 218.621 348.08 218.105C348.414 218.105 348.748 218.105 349.092 218.105C349.259 217.604 349.426 217.103 349.598 216.587C349.932 216.587 350.265 216.587 350.609 216.587C350.609 216.086 350.609 215.586 350.609 215.07C351.434 214.372 352.278 213.697 353.139 213.046C353.306 212.712 353.473 212.378 353.645 212.034C354.146 212.034 354.647 212.034 355.163 212.034C355.33 211.533 355.497 211.032 355.669 210.516C356.003 210.516 356.337 210.516 356.681 210.516C356.848 210.015 357.014 209.515 357.186 208.999C357.52 208.999 357.854 208.999 358.198 208.999C358.365 208.498 358.532 207.997 358.704 207.481C359.038 207.481 359.372 207.481 359.716 207.481C359.883 206.98 360.05 206.479 360.222 205.963C360.556 205.963 360.89 205.963 361.234 205.963C361.401 205.462 361.568 204.961 361.74 204.445C362.074 204.445 362.408 204.445 362.752 204.445C362.752 204.111 362.752 203.777 362.752 203.433C363.503 203.183 363.503 203.183 364.269 202.927C364.436 202.594 364.603 202.26 364.775 201.916C366.318 201.401 367.459 201.309 369.076 201.283Z"/>
</mask>
<path d="M369.076 201.283C369.561 201.27 370.046 201.257 370.546 201.244C371.858 201.41 371.858 201.41 372.688 202.025C373.593 203.212 373.564 203.913 373.562 205.398C373.565 205.907 373.568 206.416 373.57 206.941C373.566 207.499 373.561 208.057 373.556 208.633C373.557 209.221 373.558 209.809 373.559 210.415C373.561 212.366 373.552 214.317 373.542 216.267C373.54 217.62 373.539 218.973 373.539 220.326C373.537 223.164 373.53 226.003 373.518 228.841C373.504 232.482 373.498 236.122 373.496 239.762C373.494 242.557 373.489 245.352 373.483 248.147C373.48 249.489 373.478 250.832 373.476 252.174C373.472 254.05 373.466 255.926 373.458 257.802C373.457 258.358 373.456 258.914 373.456 259.488C373.453 260 373.45 260.512 373.447 261.039C373.446 261.483 373.444 261.926 373.443 262.383C373.373 263.687 373.157 264.896 372.87 266.168C372.536 266.168 372.202 266.168 371.858 266.168C371.691 267.336 371.524 268.505 371.352 269.709C371.018 269.709 370.685 269.709 370.34 269.709C370.174 270.544 370.007 271.379 369.835 272.239C369.501 272.239 369.167 272.239 368.823 272.239C368.656 272.907 368.489 273.575 368.317 274.263C367.983 274.263 367.649 274.263 367.305 274.263C367.138 274.763 366.971 275.264 366.799 275.78C366.465 275.78 366.131 275.78 365.787 275.78C365.62 276.281 365.453 276.782 365.281 277.298C364.947 277.298 364.613 277.298 364.269 277.298C364.102 277.799 363.936 278.3 363.763 278.816C363.43 278.816 363.096 278.816 362.752 278.816C362.585 279.317 362.418 279.818 362.246 280.334C361.912 280.334 361.578 280.334 361.234 280.334C361.067 280.835 360.9 281.335 360.728 281.851C358.985 283.369 358.985 283.369 357.692 283.369C357.692 283.703 357.692 284.037 357.692 284.381C356.851 285.058 356.008 285.733 355.163 286.405C354.829 286.822 354.495 287.24 354.151 287.67C353.087 289 351.936 289.897 350.609 290.958C349.92 291.789 349.244 292.632 348.586 293.488C347.764 294.405 347.764 294.405 347.068 295.005C346.734 295.005 346.4 295.005 346.056 295.005C345.876 295.435 345.876 295.435 345.693 295.873C344.902 297.283 343.933 298.22 342.768 299.337C341.489 300.569 340.467 301.618 339.479 303.1C339.145 303.1 338.811 303.1 338.467 303.1C338.3 303.601 338.133 304.102 337.961 304.618C337.627 304.618 337.294 304.618 336.95 304.618C336.783 305.119 336.616 305.62 336.444 306.136C335.598 306.97 335.598 306.97 334.546 307.843C333.286 308.907 332.079 309.968 330.942 311.163C329.867 312.207 329.867 312.207 328.855 312.207C328.855 312.541 328.855 312.875 328.855 313.219C328.014 313.896 327.17 314.57 326.325 315.242C325.991 315.66 325.657 316.077 325.313 316.507C324.249 317.837 323.098 318.735 321.772 319.796C321.438 320.213 321.104 320.63 320.76 321.06C319.696 322.391 318.545 323.288 317.219 324.349C316.671 325.038 316.671 325.038 316.112 325.74C315.809 326.116 315.507 326.492 315.195 326.879C314.861 326.879 314.527 326.879 314.183 326.879C314.011 327.286 314.011 327.286 313.835 327.701C312.941 329.319 311.888 330.567 310.642 331.938C310.308 331.938 309.974 331.938 309.63 331.938C309.463 332.439 309.296 332.94 309.124 333.456C308.79 333.456 308.456 333.456 308.112 333.456C307.945 333.956 307.778 334.457 307.606 334.973C307.272 334.973 306.938 334.973 306.594 334.973C306.427 335.474 306.26 335.975 306.088 336.491C305.754 336.491 305.42 336.491 305.076 336.491C304.909 336.992 304.742 337.493 304.57 338.009C304.237 338.009 303.903 338.009 303.559 338.009C303.392 338.51 303.225 339.011 303.053 339.527C302.719 339.527 302.385 339.527 302.041 339.527C301.874 340.028 301.707 340.528 301.535 341.044C301.201 341.044 300.867 341.044 300.523 341.044C300.523 341.378 300.523 341.712 300.523 342.056C299.598 342.841 299.598 342.841 298.373 343.732C296.599 345.066 295.316 346.379 293.946 348.127C291.211 350.151 291.211 350.151 289.899 350.151C289.732 350.652 289.565 351.153 289.393 351.669C289.059 351.669 288.725 351.669 288.381 351.669C288.214 352.17 288.047 352.671 287.875 353.187C287.541 353.187 287.207 353.187 286.863 353.187C286.628 353.656 286.628 353.656 286.389 354.135C286.041 354.831 285.693 355.526 285.345 356.222C285.64 356.222 285.935 356.221 286.239 356.22C303.704 356.186 321.169 356.16 338.634 356.145C340.729 356.143 342.825 356.141 344.92 356.139C345.546 356.138 345.546 356.138 346.185 356.138C352.946 356.131 359.707 356.119 366.469 356.105C373.403 356.091 380.337 356.082 387.271 356.079C391.552 356.077 395.833 356.071 400.114 356.058C403.047 356.05 405.98 356.048 408.913 356.05C410.607 356.051 412.301 356.048 413.995 356.041C415.829 356.034 417.663 356.035 419.497 356.04C420.036 356.035 420.574 356.031 421.13 356.026C421.864 356.031 421.864 356.031 422.613 356.035C423.036 356.035 423.46 356.034 423.896 356.034C425.246 356.268 425.695 356.643 426.498 357.74C426.664 359.353 426.664 359.353 426.624 361.281C426.619 361.617 426.613 361.952 426.608 362.297C426.544 365.176 426.325 368.035 425.992 370.894C425.658 370.894 425.324 370.894 424.98 370.894C424.996 371.692 424.996 371.692 425.012 372.507C424.986 374.095 424.846 375.431 424.474 376.965C424.14 376.965 423.806 376.965 423.462 376.965C423.295 378.468 423.129 379.97 422.957 381.518C422.623 381.518 422.289 381.518 421.945 381.518C421.778 382.687 421.611 383.856 421.439 385.06C421.105 385.06 420.771 385.06 420.427 385.06C420.26 386.061 420.093 387.063 419.921 388.095C419.587 388.095 419.253 388.095 418.909 388.095C418.742 389.097 418.575 390.099 418.403 391.131C418.069 391.131 417.735 391.131 417.391 391.131C417.329 391.538 417.266 391.945 417.202 392.364C417.097 392.792 416.993 393.22 416.885 393.66C416.385 393.911 416.385 393.911 415.874 394.166C415.707 394.667 415.54 395.168 415.368 395.684C415.034 395.684 414.7 395.684 414.356 395.684C414.189 396.185 414.022 396.686 413.85 397.202C413.516 397.202 413.182 397.202 412.838 397.202C412.692 397.494 412.546 397.786 412.395 398.087C412.208 398.463 412.02 398.839 411.826 399.226C411.689 399.544 411.551 399.862 411.409 400.19C410.706 401.442 409.903 402.205 408.822 403.146C408.299 403.612 408.299 403.612 407.765 404.087C406.767 404.791 406.767 404.791 405.249 404.791C405.082 405.292 404.915 405.792 404.743 406.308C403.751 407.121 403.751 407.121 402.53 407.921C402.129 408.189 401.729 408.457 401.316 408.733C400.19 409.344 400.19 409.344 398.672 409.344C398.672 409.678 398.672 410.012 398.672 410.356C397.777 410.696 396.881 411.033 395.984 411.368C395.486 411.556 394.987 411.743 394.473 411.937C393.107 412.38 393.107 412.38 391.589 412.38C391.589 412.713 391.589 413.047 391.589 413.391C390.087 413.558 388.584 413.725 387.036 413.897C387.036 414.231 387.036 414.565 387.036 414.909C385.033 415.076 383.029 415.243 380.965 415.415C380.965 415.749 380.965 416.083 380.965 416.427C376.508 417.071 372.058 417.002 367.567 416.994C366.661 416.994 365.756 416.994 364.85 416.995C362.369 416.996 359.887 416.994 357.405 416.992C354.727 416.989 352.048 416.99 349.37 416.991C344.731 416.991 340.093 416.989 335.454 416.986C328.747 416.982 322.041 416.981 315.334 416.98C304.452 416.979 293.571 416.976 282.69 416.971C272.12 416.966 261.551 416.963 250.981 416.961C250.329 416.961 249.678 416.96 249.006 416.96C245.737 416.96 242.468 416.959 239.199 416.958C212.084 416.953 184.968 416.944 157.853 416.933C157.853 416.432 157.853 415.931 157.853 415.415C157.519 415.415 157.185 415.415 156.841 415.415C156.841 414.914 156.841 414.413 156.841 413.897C157.175 413.897 157.509 413.897 157.853 413.897C157.905 413.303 157.957 412.708 158.011 412.095C158.272 409.939 158.941 408.261 159.876 406.308C160.21 406.308 160.544 406.308 160.888 406.308C161.003 406.048 161.118 405.787 161.236 405.518C162.748 402.71 164.424 400.67 166.959 398.72C167.46 398.094 167.46 398.094 167.971 397.455C169.035 396.125 170.187 395.227 171.513 394.166C172.013 393.54 172.013 393.54 172.524 392.902C173.589 391.571 174.74 390.674 176.066 389.613C176.567 388.987 176.567 388.987 177.078 388.348C178.142 387.018 179.293 386.121 180.619 385.06C181.12 384.434 181.12 384.434 181.631 383.795C182.703 382.455 183.763 381.483 185.173 380.506C185.673 380.506 186.174 380.506 186.69 380.506C186.857 380.006 187.024 379.505 187.196 378.989C187.53 378.989 187.864 378.989 188.208 378.989C188.375 378.488 188.542 377.987 188.714 377.471C189.048 377.471 189.382 377.471 189.726 377.471C189.893 376.97 190.06 376.469 190.232 375.953C190.566 375.953 190.9 375.953 191.244 375.953C191.244 375.452 191.244 374.951 191.244 374.435C192.063 373.569 192.911 372.73 193.773 371.906C194.191 371.394 194.608 370.883 195.038 370.356C196.219 368.969 197.414 367.974 198.832 366.846C199.333 366.22 199.333 366.22 199.844 365.582C200.908 364.252 202.06 363.354 203.386 362.293C203.887 361.667 203.887 361.667 204.398 361.028C205.462 359.698 206.613 358.801 207.939 357.74C208.402 357.145 208.402 357.145 208.874 356.538C209.974 355.196 211.085 354.238 212.461 353.187C213.903 352.065 215.28 350.969 216.54 349.645C216.874 349.311 217.208 348.977 217.552 348.633C217.886 348.633 218.219 348.633 218.563 348.633C218.73 348.132 218.897 347.632 219.069 347.115C219.403 347.115 219.737 347.115 220.081 347.115C220.248 346.615 220.415 346.114 220.587 345.598C220.921 345.598 221.255 345.598 221.599 345.598C221.766 345.097 221.933 344.596 222.105 344.08C222.439 344.08 222.773 344.08 223.117 344.08C223.117 343.579 223.117 343.078 223.117 342.562C223.936 341.669 224.761 340.856 225.646 340.033C228.063 337.681 228.063 337.681 230.263 335.131C231.302 333.85 232.456 332.966 233.741 331.938C234.242 331.312 234.242 331.312 234.753 330.673C235.817 329.343 236.968 328.445 238.294 327.384C238.628 326.967 238.962 326.55 239.306 326.12C240.37 324.79 241.522 323.892 242.848 322.831C243.14 322.445 243.432 322.059 243.733 321.661C245.364 319.713 247.316 318.173 249.425 316.76C249.759 316.76 250.093 316.76 250.437 316.76C250.604 316.259 250.771 315.758 250.943 315.242C251.276 315.242 251.61 315.242 251.954 315.242C252.121 314.741 252.288 314.241 252.46 313.725C252.794 313.725 253.128 313.725 253.472 313.725C253.663 313.302 253.663 313.302 253.858 312.871C254.586 311.511 255.451 310.378 256.413 309.171C256.75 308.743 257.087 308.316 257.435 307.875C258.551 306.619 259.739 305.649 261.061 304.618C261.395 304.201 261.729 303.783 262.073 303.353C263.137 302.023 264.288 301.125 265.614 300.065C265.948 299.647 266.282 299.23 266.626 298.8C267.69 297.47 268.842 296.572 270.168 295.511C270.502 295.094 270.835 294.677 271.18 294.247C272.244 292.916 273.395 292.019 274.721 290.958C275.013 290.572 275.305 290.186 275.606 289.788C277.237 287.84 279.189 286.3 281.298 284.887C281.632 284.887 281.966 284.887 282.31 284.887C282.477 284.386 282.644 283.885 282.816 283.369C283.15 283.369 283.484 283.369 283.828 283.369C283.995 282.868 284.162 282.367 284.334 281.851C284.667 281.851 285.001 281.851 285.345 281.851C285.536 281.429 285.536 281.429 285.731 280.998C286.459 279.638 287.324 278.504 288.286 277.298C288.623 276.87 288.96 276.442 289.308 276.002C290.425 274.746 291.612 273.776 292.934 272.745C293.268 272.327 293.602 271.91 293.946 271.48C295.01 270.15 296.161 269.252 297.488 268.191C297.821 267.774 298.155 267.357 298.499 266.927C299.563 265.597 300.715 264.699 302.041 263.638C302.349 263.242 302.656 262.845 302.974 262.437C304.41 260.688 306.093 259.463 307.891 258.105C309.183 257.085 309.183 257.085 310.199 255.67C310.512 255.294 310.825 254.919 311.147 254.532C311.648 254.532 312.149 254.532 312.665 254.532C312.832 254.031 312.999 253.53 313.171 253.014C313.505 253.014 313.839 253.014 314.183 253.014C314.35 252.513 314.517 252.012 314.689 251.496C315.023 251.496 315.357 251.496 315.701 251.496C315.868 250.995 316.035 250.494 316.207 249.978C316.541 249.978 316.875 249.978 317.219 249.978C317.385 249.477 317.552 248.977 317.724 248.461C318.058 248.461 318.392 248.461 318.736 248.461C318.736 247.96 318.736 247.459 318.736 246.943C319.555 246.049 320.381 245.237 321.266 244.413C323.682 242.062 323.682 242.062 325.882 239.512C326.921 238.231 328.076 237.346 329.361 236.318C329.695 235.901 330.029 235.484 330.373 235.054C331.437 233.723 332.588 232.826 333.914 231.765C334.217 231.379 334.519 230.993 334.831 230.595C336.355 228.723 338.15 227.252 339.985 225.694C340.32 225.397 340.654 225.099 340.999 224.793C341.311 224.516 341.624 224.24 341.946 223.955C342.226 223.705 342.506 223.455 342.795 223.198C343.527 222.658 343.527 222.658 344.538 222.658C344.705 222.158 344.872 221.657 345.044 221.141C345.378 221.141 345.712 221.141 346.056 221.141C346.223 220.64 346.39 220.139 346.562 219.623C346.896 219.623 347.23 219.623 347.574 219.623C347.741 219.122 347.908 218.621 348.08 218.105C348.414 218.105 348.748 218.105 349.092 218.105C349.259 217.604 349.426 217.103 349.598 216.587C349.932 216.587 350.265 216.587 350.609 216.587C350.609 216.086 350.609 215.586 350.609 215.07C351.434 214.372 352.278 213.697 353.139 213.046C353.306 212.712 353.473 212.378 353.645 212.034C354.146 212.034 354.647 212.034 355.163 212.034C355.33 211.533 355.497 211.032 355.669 210.516C356.003 210.516 356.337 210.516 356.681 210.516C356.848 210.015 357.014 209.515 357.186 208.999C357.52 208.999 357.854 208.999 358.198 208.999C358.365 208.498 358.532 207.997 358.704 207.481C359.038 207.481 359.372 207.481 359.716 207.481C359.883 206.98 360.05 206.479 360.222 205.963C360.556 205.963 360.89 205.963 361.234 205.963C361.401 205.462 361.568 204.961 361.74 204.445C362.074 204.445 362.408 204.445 362.752 204.445C362.752 204.111 362.752 203.777 362.752 203.433C363.503 203.183 363.503 203.183 364.269 202.927C364.436 202.594 364.603 202.26 364.775 201.916C366.318 201.401 367.459 201.309 369.076 201.283Z" fill="#47B970" stroke="#503BEA" stroke-width="2" mask="url(#path-1-inside-1_0_1)"/>
<mask id="path-2-inside-2_0_1" fill="white">
<path d="M160.618 95.0447C160.992 95.046 161.366 95.0473 161.75 95.0487C162.146 95.0481 162.541 95.0476 162.948 95.0469C164.29 95.0456 165.631 95.0479 166.972 95.0501C167.937 95.0499 168.901 95.0495 169.866 95.0488C172.53 95.0477 175.194 95.0497 177.857 95.0523C180.725 95.0544 183.593 95.0537 186.46 95.0533C191.433 95.053 196.406 95.0546 201.378 95.0575C208.568 95.0616 215.758 95.0629 222.948 95.0635C234.612 95.0647 246.275 95.068 257.939 95.0728C269.272 95.0774 280.606 95.081 291.939 95.0832C292.288 95.0832 292.638 95.0833 292.997 95.0834C296.503 95.084 300.01 95.0847 303.516 95.0853C332.935 95.0906 362.355 95.0995 391.774 95.111C391.774 95.4449 391.774 95.7788 391.774 96.1228C392.275 96.2898 392.776 96.4567 393.292 96.6287C393.307 98.6419 393.316 100.655 393.324 102.668C393.328 103.233 393.332 103.798 393.337 104.381C393.346 107.577 393.213 110.662 392.786 113.83C392.452 113.83 392.119 113.83 391.774 113.83C391.79 114.628 391.79 114.628 391.806 115.443C391.78 117.031 391.64 118.368 391.269 119.901C390.935 119.901 390.601 119.901 390.257 119.901C390.09 121.404 389.923 122.906 389.751 124.455C389.417 124.455 389.083 124.455 388.739 124.455C388.572 125.623 388.405 126.792 388.233 127.996C387.899 127.996 387.565 127.996 387.221 127.996C387.054 128.998 386.887 129.999 386.715 131.032C386.381 131.032 386.047 131.032 385.703 131.032C385.536 132.033 385.369 133.035 385.197 134.067C384.864 134.067 384.53 134.067 384.186 134.067C384.019 135.069 383.852 136.071 383.68 137.103C383.346 137.103 383.012 137.103 382.668 137.103C382.574 137.713 382.574 137.713 382.478 138.336C382.374 138.764 382.269 139.191 382.162 139.632C381.828 139.799 381.494 139.966 381.15 140.138C380.983 140.639 380.816 141.14 380.644 141.656C380.31 141.656 379.976 141.656 379.632 141.656C379.486 141.948 379.34 142.24 379.19 142.541C379.002 142.917 378.814 143.293 378.62 143.68C378.454 144.045 378.287 144.41 378.115 144.786C377.609 145.703 377.609 145.703 376.597 146.209C376.43 146.71 376.263 147.211 376.091 147.727C375.757 147.727 375.423 147.727 375.079 147.727C374.912 148.228 374.745 148.729 374.573 149.245C374.239 149.245 373.905 149.245 373.561 149.245C373.53 149.62 373.499 149.996 373.466 150.383C372.925 152.215 372.039 152.672 370.526 153.798C369.839 154.631 369.163 155.474 368.502 156.328C367.827 157.002 367.153 157.677 366.478 158.351C366.144 158.852 365.81 159.353 365.466 159.869C365.133 159.869 364.799 159.869 364.455 159.869C364.288 160.37 364.121 160.871 363.949 161.387C363.615 161.387 363.281 161.387 362.937 161.387C362.77 161.888 362.603 162.389 362.431 162.905C362.097 162.905 361.763 162.905 361.419 162.905C361.252 163.406 361.085 163.906 360.913 164.422C360.579 164.422 360.245 164.422 359.901 164.422C359.734 164.923 359.567 165.424 359.395 165.94C359.061 165.94 358.728 165.94 358.384 165.94C358.217 166.441 358.05 166.942 357.878 167.458C357.544 167.458 357.21 167.458 356.866 167.458C356.784 167.904 356.784 167.904 356.7 168.359C355.825 171.249 353.075 173.247 350.795 175.047C350.461 175.464 350.127 175.882 349.783 176.312C348.719 177.642 347.567 178.539 346.241 179.6C345.876 180.059 345.511 180.518 345.135 180.991C344.832 181.367 344.529 181.743 344.218 182.13C343.884 182.13 343.55 182.13 343.206 182.13C343.039 182.798 342.872 183.465 342.7 184.153C342.366 184.153 342.032 184.153 341.688 184.153C341.521 184.654 341.354 185.155 341.182 185.671C340.848 185.671 340.514 185.671 340.17 185.671C340.003 186.172 339.836 186.673 339.664 187.189C339.33 187.189 338.997 187.189 338.653 187.189C338.486 187.69 338.319 188.191 338.147 188.707C337.813 188.707 337.479 188.707 337.135 188.707C336.968 189.208 336.801 189.708 336.629 190.225C336.295 190.225 335.961 190.225 335.617 190.225C335.45 190.725 335.283 191.226 335.111 191.742C334.777 191.742 334.443 191.742 334.099 191.742C333.932 192.243 333.765 192.744 333.593 193.26C333.259 193.26 332.925 193.26 332.581 193.26C332.414 193.761 332.248 194.262 332.076 194.778C331.742 194.778 331.408 194.778 331.064 194.778C331.032 195.153 331.001 195.529 330.969 195.916C330.428 197.748 329.542 198.205 328.028 199.331C327.694 199.749 327.36 200.166 327.016 200.596C325.952 201.926 324.801 202.824 323.475 203.884C323.141 204.302 322.807 204.719 322.463 205.149C321.399 206.479 320.248 207.377 318.922 208.438C318.588 208.855 318.254 209.273 317.91 209.703C316.846 211.033 315.694 211.93 314.368 212.991C313.82 213.68 313.82 213.68 313.261 214.382C312.959 214.758 312.656 215.134 312.345 215.521C312.011 215.521 311.677 215.521 311.333 215.521C311.187 215.823 311.04 216.126 310.89 216.438C310.321 217.544 310.321 217.544 309.309 219.062C308.975 219.062 308.641 219.062 308.297 219.062C308.13 219.563 307.963 220.064 307.791 220.58C307.457 220.58 307.123 220.58 306.779 220.58C306.612 221.081 306.445 221.582 306.273 222.098C305.94 222.098 305.606 222.098 305.262 222.098C305.095 222.599 304.928 223.099 304.756 223.615C304.422 223.615 304.088 223.615 303.744 223.615C303.577 224.116 303.41 224.617 303.238 225.133C302.904 225.133 302.57 225.133 302.226 225.133C302.059 225.634 301.892 226.135 301.72 226.651C301.386 226.651 301.052 226.651 300.708 226.651C300.541 227.152 300.374 227.653 300.202 228.169C299.868 228.169 299.535 228.169 299.191 228.169C299.024 228.67 298.857 229.17 298.685 229.687C298.351 229.687 298.017 229.687 297.673 229.687C297.506 230.187 297.339 230.688 297.167 231.204C296.833 231.204 296.499 231.204 296.155 231.204C295.988 231.705 295.821 232.206 295.649 232.722C295.315 232.722 294.981 232.722 294.637 232.722C294.47 233.223 294.303 233.724 294.131 234.24C293.797 234.24 293.463 234.24 293.119 234.24C292.952 234.741 292.786 235.242 292.614 235.758C292.28 235.758 291.946 235.758 291.602 235.758C291.435 236.258 291.268 236.759 291.096 237.275C290.762 237.275 290.428 237.275 290.084 237.275C289.917 237.776 289.75 238.277 289.578 238.793C289.244 238.793 288.91 238.793 288.566 238.793C288.399 239.294 288.232 239.795 288.06 240.311C287.726 240.311 287.392 240.311 287.048 240.311C286.881 240.812 286.714 241.313 286.542 241.829C286.209 241.829 285.875 241.829 285.531 241.829C285.364 242.33 285.197 242.83 285.025 243.346C284.691 243.346 284.357 243.346 284.013 243.346C283.846 243.847 283.679 244.348 283.507 244.864C283.173 244.864 282.839 244.864 282.495 244.864C282.495 245.365 282.495 245.866 282.495 246.382C281.676 247.248 280.828 248.088 279.965 248.912C279.548 249.423 279.131 249.934 278.701 250.461C277.52 251.848 276.325 252.843 274.906 253.971C274.572 254.388 274.238 254.806 273.894 255.236C272.83 256.566 271.679 257.463 270.353 258.524C270.019 258.942 269.685 259.359 269.341 259.789C268.277 261.119 267.126 262.017 265.8 263.077C265.466 263.495 265.132 263.912 264.788 264.342C263.724 265.672 262.572 266.57 261.246 267.631C260.912 268.048 260.578 268.466 260.234 268.896C259.17 270.226 258.019 271.123 256.693 272.184C256.359 272.601 256.025 273.019 255.681 273.449C254.617 274.779 253.466 275.677 252.14 276.737C251.806 277.155 251.472 277.572 251.128 278.002C250.064 279.332 248.912 280.23 247.586 281.291C246.897 282.122 246.221 282.964 245.563 283.82C244.741 284.737 244.741 284.737 244.045 285.338C243.711 285.338 243.377 285.338 243.033 285.338C242.887 285.641 242.741 285.943 242.59 286.255C242.021 287.362 242.021 287.362 241.009 288.88C240.675 288.88 240.342 288.88 239.997 288.88C239.831 289.38 239.664 289.881 239.492 290.397C239.158 290.397 238.824 290.397 238.48 290.397C238.313 290.898 238.146 291.399 237.974 291.915C237.64 291.915 237.306 291.915 236.962 291.915C236.795 292.416 236.628 292.917 236.456 293.433C236.122 293.433 235.788 293.433 235.444 293.433C235.277 293.934 235.11 294.435 234.938 294.951C234.604 294.951 234.27 294.951 233.926 294.951C233.759 295.451 233.592 295.952 233.42 296.468C233.087 296.468 232.753 296.468 232.409 296.468C232.242 296.969 232.075 297.47 231.903 297.986C231.569 297.986 231.235 297.986 230.891 297.986C230.724 298.487 230.557 298.988 230.385 299.504C230.051 299.504 229.717 299.504 229.373 299.504C229.206 300.005 229.039 300.506 228.867 301.022C228.533 301.022 228.199 301.022 227.855 301.022C227.688 301.523 227.521 302.023 227.349 302.539C227.015 302.539 226.682 302.539 226.338 302.539C226.171 303.04 226.004 303.541 225.832 304.057C225.498 304.057 225.164 304.057 224.82 304.057C224.653 304.558 224.486 305.059 224.314 305.575C223.98 305.575 223.646 305.575 223.302 305.575C223.135 306.076 222.968 306.577 222.796 307.093C222.462 307.093 222.128 307.093 221.784 307.093C221.617 307.594 221.45 308.094 221.278 308.61C220.944 308.61 220.61 308.61 220.266 308.61C220.1 309.111 219.933 309.612 219.761 310.128C219.427 310.128 219.093 310.128 218.749 310.128C218.582 310.629 218.415 311.13 218.243 311.646C217.909 311.646 217.575 311.646 217.231 311.646C217.064 312.147 216.897 312.648 216.725 313.164C216.391 313.164 216.057 313.164 215.713 313.164C215.546 313.665 215.379 314.166 215.207 314.682C214.873 314.682 214.539 314.682 214.195 314.682C214.028 315.182 213.861 315.683 213.689 316.199C213.356 316.199 213.022 316.199 212.678 316.199C212.511 316.7 212.344 317.201 212.172 317.717C211.838 317.717 211.504 317.717 211.16 317.717C210.993 318.218 210.826 318.719 210.654 319.235C210.32 319.235 209.986 319.235 209.642 319.235C209.475 319.736 209.308 320.237 209.136 320.753C208.802 320.753 208.468 320.753 208.124 320.753C207.957 321.254 207.79 321.754 207.618 322.27C207.284 322.27 206.951 322.27 206.607 322.27C206.44 322.771 206.273 323.272 206.101 323.788C205.767 323.788 205.433 323.788 205.089 323.788C204.922 324.289 204.755 324.79 204.583 325.306C204.249 325.306 203.915 325.306 203.571 325.306C203.404 325.807 203.237 326.308 203.065 326.824C202.731 326.824 202.397 326.824 202.053 326.824C201.886 327.325 201.719 327.825 201.547 328.341C201.213 328.341 200.879 328.341 200.535 328.341C200.368 328.842 200.202 329.343 200.03 329.859C199.696 329.859 199.362 329.859 199.018 329.859C198.851 330.36 198.684 330.861 198.512 331.377C198.178 331.377 197.844 331.377 197.5 331.377C197.333 331.878 197.166 332.379 196.994 332.895C196.66 332.895 196.326 332.895 195.982 332.895C195.982 333.396 195.982 333.897 195.982 334.413C195.163 335.306 194.338 336.119 193.453 336.942C191.036 339.293 191.036 339.293 188.836 341.843C187.797 343.124 186.643 344.009 185.358 345.037C184.857 345.663 184.857 345.663 184.346 346.302C183.282 347.632 182.13 348.529 180.804 349.59C180.304 350.216 180.304 350.216 179.793 350.855C178.729 352.185 177.577 353.083 176.251 354.144C175.917 354.561 175.583 354.978 175.239 355.408C174.175 356.738 173.024 357.636 171.698 358.697C171.364 359.114 171.03 359.532 170.686 359.962C169.622 361.292 168.471 362.189 167.145 363.25C166.811 363.668 166.477 364.085 166.133 364.515C165.069 365.845 163.917 366.743 162.591 367.803C162.257 368.221 161.923 368.638 161.579 369.068C160.515 370.398 159.364 371.296 158.038 372.357C157.704 372.774 157.37 373.192 157.026 373.622C155.962 374.952 154.811 375.849 153.485 376.91C153.151 377.327 152.817 377.745 152.473 378.175C151.409 379.505 150.257 380.403 148.931 381.463C148.597 381.881 148.263 382.298 147.919 382.728C146.858 384.055 145.706 384.968 144.378 386.017C144.044 386.518 143.71 387.018 143.366 387.534C143.032 387.534 142.698 387.534 142.354 387.534C142.119 388.004 142.119 388.004 141.88 388.483C141.532 389.179 141.184 389.874 140.836 390.57C140.503 390.57 140.169 390.57 139.825 390.57C139.658 391.071 139.491 391.572 139.319 392.088C138.985 392.088 138.651 392.088 138.307 392.088C138.14 392.589 137.973 393.089 137.801 393.606C135.616 396.02 135.616 396.02 133.754 396.641C133.587 397.142 133.42 397.643 133.248 398.159C132.914 398.159 132.58 398.159 132.236 398.159C132.069 398.66 131.902 399.161 131.73 399.677C131.396 399.677 131.062 399.677 130.718 399.677C130.551 400.177 130.384 400.678 130.212 401.194C129.878 401.194 129.544 401.194 129.2 401.194C129.033 401.695 128.866 402.196 128.694 402.712C128.36 402.712 128.027 402.712 127.682 402.712C127.516 403.213 127.349 403.714 127.177 404.23C126.843 404.23 126.509 404.23 126.165 404.23C125.998 404.731 125.831 405.232 125.659 405.748C125.325 405.748 124.991 405.748 124.647 405.748C124.48 406.249 124.313 406.749 124.141 407.265C123.807 407.265 123.473 407.265 123.129 407.265C122.962 407.766 122.795 408.267 122.623 408.783C122.289 408.783 121.955 408.783 121.611 408.783C121.444 409.284 121.278 409.785 121.105 410.301C120.378 411.155 120.378 411.155 119.588 411.819C119.254 411.819 118.92 411.819 118.576 411.819C118.409 412.32 118.242 412.82 118.07 413.337C117.736 413.337 117.402 413.337 117.058 413.337C116.891 413.837 116.724 414.338 116.552 414.854C116.051 414.854 115.55 414.854 115.034 414.854C115.034 415.188 115.034 415.522 115.034 415.866C113.518 416.372 112.492 416.442 110.907 416.454C110.375 416.458 109.843 416.463 109.295 416.468C108.721 416.47 108.148 416.473 107.556 416.475C106.967 416.478 106.377 416.481 105.77 416.484C104.523 416.488 103.276 416.492 102.029 416.494C100.117 416.499 98.2055 416.514 96.2935 416.53C95.0834 416.533 93.8732 416.536 92.6631 416.538C92.0892 416.544 91.5153 416.551 90.9239 416.557C90.3921 416.555 89.8603 416.554 89.3124 416.552C88.844 416.554 88.3756 416.556 87.893 416.558C86.7027 416.372 86.7027 416.372 85.792 415.777C84.9475 414.493 84.999 413.578 85.0046 412.046C85.0031 411.47 85.0016 410.894 85 410.3C85.0094 409.363 85.0094 409.363 85.0189 408.408C85.0204 407.441 85.0204 407.441 85.0218 406.454C85.0252 405.085 85.0314 403.717 85.0426 402.348C85.0568 400.613 85.0625 398.877 85.0647 397.142C85.0674 395.469 85.0747 393.796 85.0822 392.123C85.0843 391.509 85.0865 390.895 85.0887 390.262C85.1816 378.937 85.1816 378.937 86.1968 377.922C86.3991 376.562 86.5769 375.208 86.7343 373.843C86.7803 373.459 86.8263 373.075 86.8737 372.68C86.9873 371.729 87.0982 370.778 87.2086 369.827C87.5425 369.827 87.8764 369.827 88.2205 369.827C88.3874 367.824 88.5544 365.82 88.7264 363.756C89.0603 363.756 89.3942 363.756 89.7382 363.756C89.9052 362.253 90.0722 360.751 90.2442 359.203C90.5781 359.203 90.912 359.203 91.256 359.203C91.303 358.514 91.303 358.514 91.3509 357.811C91.7966 354.572 93.3457 351.482 94.7975 348.578C95.1314 348.578 95.4653 348.578 95.8093 348.578C95.9763 347.577 96.1432 346.575 96.3152 345.543C96.6492 345.543 96.9831 345.543 97.3271 345.543C97.494 344.875 97.661 344.207 97.833 343.519C98.1669 343.519 98.5008 343.519 98.8449 343.519C99.0118 342.517 99.1788 341.516 99.3508 340.484C99.6847 340.484 100.019 340.484 100.363 340.484C100.509 340.098 100.655 339.711 100.805 339.314C101.374 337.954 101.374 337.954 102.386 336.436C102.72 336.436 103.054 336.436 103.398 336.436C103.565 335.768 103.732 335.101 103.904 334.413C104.238 334.413 104.572 334.413 104.916 334.413C105.031 334.058 105.146 333.703 105.264 333.337C106.099 331.508 107.087 330.321 108.457 328.847C108.791 328.847 109.125 328.847 109.469 328.847C109.636 328.18 109.803 327.512 109.975 326.824C110.309 326.824 110.643 326.824 110.987 326.824C111.154 326.323 111.321 325.822 111.493 325.306C111.827 325.306 112.161 325.306 112.505 325.306C112.672 324.805 112.839 324.304 113.011 323.788C113.345 323.788 113.679 323.788 114.023 323.788C114.19 323.287 114.356 322.786 114.528 322.27C114.862 322.27 115.196 322.27 115.54 322.27C115.707 321.77 115.874 321.269 116.046 320.753C116.38 320.753 116.714 320.753 117.058 320.753C117.225 320.252 117.392 319.751 117.564 319.235C117.898 319.235 118.232 319.235 118.576 319.235C118.743 318.734 118.91 318.233 119.082 317.717C119.416 317.717 119.75 317.717 120.094 317.717C120.261 317.216 120.428 316.715 120.6 316.199C120.933 316.199 121.267 316.199 121.611 316.199C121.778 315.698 121.945 315.198 122.117 314.682C122.451 314.682 122.785 314.682 123.129 314.682C123.296 314.181 123.463 313.68 123.635 313.164C123.969 313.164 124.303 313.164 124.647 313.164C124.647 312.663 124.647 312.162 124.647 311.646C125.466 310.78 126.314 309.94 127.177 309.116C127.594 308.605 128.011 308.094 128.441 307.567C129.622 306.18 130.817 305.185 132.236 304.057C132.737 303.431 132.737 303.431 133.248 302.792C134.312 301.462 135.463 300.565 136.789 299.504C137.29 298.878 137.29 298.878 137.801 298.239C138.865 296.909 140.016 296.011 141.342 294.951C141.843 294.324 141.843 294.324 142.354 293.686C143.418 292.356 144.57 291.458 145.896 290.397C146.397 289.771 146.397 289.771 146.908 289.132C147.972 287.802 149.123 286.905 150.449 285.844C150.95 285.218 150.95 285.218 151.461 284.579C152.521 283.254 153.672 282.333 155.002 281.291C155.169 280.957 155.336 280.623 155.508 280.279C155.842 280.279 156.176 280.279 156.52 280.279C156.666 279.976 156.812 279.674 156.963 279.362C157.532 278.255 157.532 278.255 158.544 276.737C158.878 276.737 159.212 276.737 159.556 276.737C159.723 276.236 159.89 275.736 160.062 275.22C160.395 275.22 160.729 275.22 161.073 275.22C161.24 274.719 161.407 274.218 161.579 273.702C161.913 273.702 162.247 273.702 162.591 273.702C162.758 273.201 162.925 272.7 163.097 272.184C163.431 272.184 163.765 272.184 164.109 272.184C164.276 271.683 164.443 271.182 164.615 270.666C164.949 270.666 165.283 270.666 165.627 270.666C165.794 270.165 165.961 269.665 166.133 269.149C166.467 269.149 166.8 269.149 167.145 269.149C167.311 268.648 167.478 268.147 167.65 267.631C167.984 267.631 168.318 267.631 168.662 267.631C168.829 267.13 168.996 266.629 169.168 266.113C169.502 266.113 169.836 266.113 170.18 266.113C170.347 265.612 170.514 265.111 170.686 264.595C171.02 264.595 171.354 264.595 171.698 264.595C171.865 264.094 172.032 263.593 172.204 263.077C172.538 263.077 172.872 263.077 173.216 263.077C173.383 262.577 173.55 262.076 173.722 261.56C174.055 261.56 174.389 261.56 174.733 261.56C174.9 261.059 175.067 260.558 175.239 260.042C175.573 260.042 175.907 260.042 176.251 260.042C176.418 259.541 176.585 259.04 176.757 258.524C177.091 258.524 177.425 258.524 177.769 258.524C177.936 258.023 178.103 257.522 178.275 257.006C178.609 257.006 178.943 257.006 179.287 257.006C179.454 256.505 179.621 256.005 179.793 255.489C180.127 255.489 180.46 255.489 180.804 255.489C180.971 254.988 181.138 254.487 181.31 253.971C181.644 253.971 181.978 253.971 182.322 253.971C182.489 253.47 182.656 252.969 182.828 252.453C183.162 252.453 183.496 252.453 183.84 252.453C184.007 251.952 184.174 251.451 184.346 250.935C184.68 250.935 185.014 250.935 185.358 250.935C185.525 250.434 185.692 249.934 185.864 249.418C186.198 249.418 186.531 249.418 186.876 249.418C186.876 248.917 186.876 248.416 186.876 247.9C187.508 247.204 187.508 247.204 188.393 246.382C188.863 245.772 188.863 245.772 189.342 245.149C190.439 243.825 191.608 242.899 192.947 241.829C193.447 241.203 193.447 241.203 193.958 240.564C195.023 239.234 196.174 238.336 197.5 237.275C198.001 236.649 198.001 236.649 198.512 236.011C199.576 234.68 200.727 233.783 202.053 232.722C202.554 232.096 202.554 232.096 203.065 231.457C204.125 230.133 205.276 229.211 206.607 228.169C206.773 227.835 206.94 227.501 207.112 227.157C207.446 227.157 207.78 227.157 208.124 227.157C208.256 226.854 208.388 226.55 208.524 226.238C209.178 225.058 209.791 224.477 210.844 223.647C212.351 222.41 213.491 221.101 214.701 219.568C215.539 218.886 216.381 218.21 217.231 217.544C217.398 217.21 217.565 216.877 217.737 216.532C218.071 216.532 218.405 216.532 218.749 216.532C218.895 216.23 219.041 215.927 219.191 215.616C219.761 214.509 219.761 214.509 220.772 212.991C221.106 212.991 221.44 212.991 221.784 212.991C221.951 212.49 222.118 211.989 222.29 211.473C222.624 211.473 222.958 211.473 223.302 211.473C223.469 210.972 223.636 210.472 223.808 209.956C224.142 209.956 224.476 209.956 224.82 209.956C224.987 209.455 225.154 208.954 225.326 208.438C225.66 208.438 225.994 208.438 226.338 208.438C226.504 207.937 226.671 207.436 226.843 206.92C227.177 206.92 227.511 206.92 227.855 206.92C228.022 206.419 228.189 205.918 228.361 205.402C228.695 205.402 229.029 205.402 229.373 205.402C229.54 204.901 229.707 204.4 229.879 203.884C230.213 203.884 230.547 203.884 230.891 203.884C231.058 203.384 231.225 202.883 231.397 202.367C231.731 202.367 232.065 202.367 232.409 202.367C232.576 201.866 232.743 201.365 232.915 200.849C233.248 200.849 233.582 200.849 233.926 200.849C234.093 200.348 234.26 199.847 234.432 199.331C234.766 199.331 235.1 199.331 235.444 199.331C235.611 198.83 235.778 198.329 235.95 197.813C236.284 197.813 236.618 197.813 236.962 197.813C237.087 197.532 237.212 197.25 237.341 196.96C238.824 194.216 241.015 192.034 243.539 190.225C243.873 190.225 244.207 190.225 244.551 190.225C244.718 189.724 244.885 189.223 245.057 188.707C245.391 188.707 245.725 188.707 246.069 188.707C246.236 188.206 246.402 187.705 246.574 187.189C246.908 187.189 247.242 187.189 247.586 187.189C247.753 186.688 247.92 186.187 248.092 185.671C248.426 185.671 248.76 185.671 249.104 185.671C249.271 185.17 249.438 184.669 249.61 184.153C249.944 184.153 250.278 184.153 250.622 184.153C250.622 183.653 250.622 183.152 250.622 182.636C251.441 181.769 252.289 180.93 253.151 180.106C253.569 179.595 253.986 179.083 254.416 178.557C255.597 177.169 256.792 176.174 258.211 175.047C258.898 174.214 259.573 173.371 260.234 172.517C260.909 171.843 261.584 171.168 262.258 170.494C262.592 169.993 262.926 169.492 263.27 168.976C263.604 168.976 263.938 168.976 264.282 168.976C264.449 168.475 264.616 167.974 264.788 167.458C265.122 167.458 265.456 167.458 265.8 167.458C265.967 166.957 266.133 166.456 266.305 165.94C266.639 165.94 266.973 165.94 267.317 165.94C267.484 165.439 267.651 164.938 267.823 164.422C268.157 164.422 268.491 164.422 268.835 164.422C269.002 163.922 269.169 163.421 269.341 162.905C269.675 162.905 270.009 162.905 270.353 162.905C270.52 162.404 270.687 161.903 270.859 161.387C271.193 161.387 271.527 161.387 271.871 161.387C271.871 161.053 271.871 160.719 271.871 160.375C274.132 158.351 274.132 158.351 275.412 158.351C275.412 158.017 275.412 157.684 275.412 157.34C275.074 157.339 274.737 157.339 274.389 157.338C254.389 157.309 234.389 157.271 214.389 157.224C211.99 157.218 209.59 157.212 207.191 157.207C206.713 157.206 206.235 157.204 205.743 157.203C198 157.185 190.258 157.173 182.515 157.162C174.575 157.151 166.634 157.135 158.694 157.112C153.791 157.099 148.889 157.09 143.986 157.087C140.628 157.084 137.269 157.076 133.911 157.063C131.971 157.056 130.031 157.052 128.091 157.054C125.992 157.056 123.892 157.046 121.792 157.035C121.175 157.038 120.557 157.04 119.921 157.043C119.361 157.038 118.801 157.033 118.224 157.028C117.496 157.027 117.496 157.027 116.754 157.025C115.54 156.834 115.54 156.834 114.625 156.145C113.728 154.911 113.843 153.925 113.857 152.415C113.859 151.842 113.862 151.269 113.864 150.68C113.875 150.081 113.885 149.482 113.896 148.865C113.899 148.274 113.901 147.684 113.904 147.075C113.976 139.173 113.976 139.173 115.034 138.114C115.199 137.274 115.343 136.43 115.477 135.585C115.932 132.949 116.636 130.501 117.564 127.996C117.898 127.996 118.232 127.996 118.576 127.996C118.743 126.66 118.91 125.325 119.082 123.949C119.416 123.949 119.75 123.949 120.094 123.949C120.261 122.947 120.428 121.945 120.6 120.913C120.933 120.913 121.267 120.913 121.611 120.913C121.683 120.375 121.683 120.375 121.756 119.826C122.181 118.13 122.893 116.992 123.856 115.538C124.169 115.062 124.481 114.585 124.803 114.095C125.085 113.674 125.368 113.252 125.659 112.818C125.993 112.317 126.327 111.817 126.671 111.301C127.005 111.301 127.338 111.301 127.682 111.301C127.933 110.549 127.933 110.549 128.188 109.783C128.522 109.783 128.856 109.783 129.2 109.783C129.451 109.031 129.451 109.031 129.706 108.265C130.04 108.265 130.374 108.265 130.718 108.265C130.968 107.514 130.968 107.514 131.224 106.747C132.055 106.222 132.9 105.717 133.754 105.229C134.025 104.948 134.296 104.666 134.576 104.376C135.271 103.712 135.271 103.712 136.789 103.712C136.789 103.378 136.789 103.044 136.789 102.7C137.217 102.491 137.645 102.282 138.086 102.067C139.319 101.44 140.455 100.798 141.627 100.075C143.293 99.1968 144.065 98.9365 145.896 99.1584C145.896 98.8244 145.896 98.4905 145.896 98.1465C149.785 96.957 153.467 95.9613 157.532 95.6169C158.392 94.7565 159.47 95.0486 160.618 95.0447Z"/>
</mask>
<path d="M160.618 95.0447C160.992 95.046 161.366 95.0473 161.75 95.0487C162.146 95.0481 162.541 95.0476 162.948 95.0469C164.29 95.0456 165.631 95.0479 166.972 95.0501C167.937 95.0499 168.901 95.0495 169.866 95.0488C172.53 95.0477 175.194 95.0497 177.857 95.0523C180.725 95.0544 183.593 95.0537 186.46 95.0533C191.433 95.053 196.406 95.0546 201.378 95.0575C208.568 95.0616 215.758 95.0629 222.948 95.0635C234.612 95.0647 246.275 95.068 257.939 95.0728C269.272 95.0774 280.606 95.081 291.939 95.0832C292.288 95.0832 292.638 95.0833 292.997 95.0834C296.503 95.084 300.01 95.0847 303.516 95.0853C332.935 95.0906 362.355 95.0995 391.774 95.111C391.774 95.4449 391.774 95.7788 391.774 96.1228C392.275 96.2898 392.776 96.4567 393.292 96.6287C393.307 98.6419 393.316 100.655 393.324 102.668C393.328 103.233 393.332 103.798 393.337 104.381C393.346 107.577 393.213 110.662 392.786 113.83C392.452 113.83 392.119 113.83 391.774 113.83C391.79 114.628 391.79 114.628 391.806 115.443C391.78 117.031 391.64 118.368 391.269 119.901C390.935 119.901 390.601 119.901 390.257 119.901C390.09 121.404 389.923 122.906 389.751 124.455C389.417 124.455 389.083 124.455 388.739 124.455C388.572 125.623 388.405 126.792 388.233 127.996C387.899 127.996 387.565 127.996 387.221 127.996C387.054 128.998 386.887 129.999 386.715 131.032C386.381 131.032 386.047 131.032 385.703 131.032C385.536 132.033 385.369 133.035 385.197 134.067C384.864 134.067 384.53 134.067 384.186 134.067C384.019 135.069 383.852 136.071 383.68 137.103C383.346 137.103 383.012 137.103 382.668 137.103C382.574 137.713 382.574 137.713 382.478 138.336C382.374 138.764 382.269 139.191 382.162 139.632C381.828 139.799 381.494 139.966 381.15 140.138C380.983 140.639 380.816 141.14 380.644 141.656C380.31 141.656 379.976 141.656 379.632 141.656C379.486 141.948 379.34 142.24 379.19 142.541C379.002 142.917 378.814 143.293 378.62 143.68C378.454 144.045 378.287 144.41 378.115 144.786C377.609 145.703 377.609 145.703 376.597 146.209C376.43 146.71 376.263 147.211 376.091 147.727C375.757 147.727 375.423 147.727 375.079 147.727C374.912 148.228 374.745 148.729 374.573 149.245C374.239 149.245 373.905 149.245 373.561 149.245C373.53 149.62 373.499 149.996 373.466 150.383C372.925 152.215 372.039 152.672 370.526 153.798C369.839 154.631 369.163 155.474 368.502 156.328C367.827 157.002 367.153 157.677 366.478 158.351C366.144 158.852 365.81 159.353 365.466 159.869C365.133 159.869 364.799 159.869 364.455 159.869C364.288 160.37 364.121 160.871 363.949 161.387C363.615 161.387 363.281 161.387 362.937 161.387C362.77 161.888 362.603 162.389 362.431 162.905C362.097 162.905 361.763 162.905 361.419 162.905C361.252 163.406 361.085 163.906 360.913 164.422C360.579 164.422 360.245 164.422 359.901 164.422C359.734 164.923 359.567 165.424 359.395 165.94C359.061 165.94 358.728 165.94 358.384 165.94C358.217 166.441 358.05 166.942 357.878 167.458C357.544 167.458 357.21 167.458 356.866 167.458C356.784 167.904 356.784 167.904 356.7 168.359C355.825 171.249 353.075 173.247 350.795 175.047C350.461 175.464 350.127 175.882 349.783 176.312C348.719 177.642 347.567 178.539 346.241 179.6C345.876 180.059 345.511 180.518 345.135 180.991C344.832 181.367 344.529 181.743 344.218 182.13C343.884 182.13 343.55 182.13 343.206 182.13C343.039 182.798 342.872 183.465 342.7 184.153C342.366 184.153 342.032 184.153 341.688 184.153C341.521 184.654 341.354 185.155 341.182 185.671C340.848 185.671 340.514 185.671 340.17 185.671C340.003 186.172 339.836 186.673 339.664 187.189C339.33 187.189 338.997 187.189 338.653 187.189C338.486 187.69 338.319 188.191 338.147 188.707C337.813 188.707 337.479 188.707 337.135 188.707C336.968 189.208 336.801 189.708 336.629 190.225C336.295 190.225 335.961 190.225 335.617 190.225C335.45 190.725 335.283 191.226 335.111 191.742C334.777 191.742 334.443 191.742 334.099 191.742C333.932 192.243 333.765 192.744 333.593 193.26C333.259 193.26 332.925 193.26 332.581 193.26C332.414 193.761 332.248 194.262 332.076 194.778C331.742 194.778 331.408 194.778 331.064 194.778C331.032 195.153 331.001 195.529 330.969 195.916C330.428 197.748 329.542 198.205 328.028 199.331C327.694 199.749 327.36 200.166 327.016 200.596C325.952 201.926 324.801 202.824 323.475 203.884C323.141 204.302 322.807 204.719 322.463 205.149C321.399 206.479 320.248 207.377 318.922 208.438C318.588 208.855 318.254 209.273 317.91 209.703C316.846 211.033 315.694 211.93 314.368 212.991C313.82 213.68 313.82 213.68 313.261 214.382C312.959 214.758 312.656 215.134 312.345 215.521C312.011 215.521 311.677 215.521 311.333 215.521C311.187 215.823 311.04 216.126 310.89 216.438C310.321 217.544 310.321 217.544 309.309 219.062C308.975 219.062 308.641 219.062 308.297 219.062C308.13 219.563 307.963 220.064 307.791 220.58C307.457 220.58 307.123 220.58 306.779 220.58C306.612 221.081 306.445 221.582 306.273 222.098C305.94 222.098 305.606 222.098 305.262 222.098C305.095 222.599 304.928 223.099 304.756 223.615C304.422 223.615 304.088 223.615 303.744 223.615C303.577 224.116 303.41 224.617 303.238 225.133C302.904 225.133 302.57 225.133 302.226 225.133C302.059 225.634 301.892 226.135 301.72 226.651C301.386 226.651 301.052 226.651 300.708 226.651C300.541 227.152 300.374 227.653 300.202 228.169C299.868 228.169 299.535 228.169 299.191 228.169C299.024 228.67 298.857 229.17 298.685 229.687C298.351 229.687 298.017 229.687 297.673 229.687C297.506 230.187 297.339 230.688 297.167 231.204C296.833 231.204 296.499 231.204 296.155 231.204C295.988 231.705 295.821 232.206 295.649 232.722C295.315 232.722 294.981 232.722 294.637 232.722C294.47 233.223 294.303 233.724 294.131 234.24C293.797 234.24 293.463 234.24 293.119 234.24C292.952 234.741 292.786 235.242 292.614 235.758C292.28 235.758 291.946 235.758 291.602 235.758C291.435 236.258 291.268 236.759 291.096 237.275C290.762 237.275 290.428 237.275 290.084 237.275C289.917 237.776 289.75 238.277 289.578 238.793C289.244 238.793 288.91 238.793 288.566 238.793C288.399 239.294 288.232 239.795 288.06 240.311C287.726 240.311 287.392 240.311 287.048 240.311C286.881 240.812 286.714 241.313 286.542 241.829C286.209 241.829 285.875 241.829 285.531 241.829C285.364 242.33 285.197 242.83 285.025 243.346C284.691 243.346 284.357 243.346 284.013 243.346C283.846 243.847 283.679 244.348 283.507 244.864C283.173 244.864 282.839 244.864 282.495 244.864C282.495 245.365 282.495 245.866 282.495 246.382C281.676 247.248 280.828 248.088 279.965 248.912C279.548 249.423 279.131 249.934 278.701 250.461C277.52 251.848 276.325 252.843 274.906 253.971C274.572 254.388 274.238 254.806 273.894 255.236C272.83 256.566 271.679 257.463 270.353 258.524C270.019 258.942 269.685 259.359 269.341 259.789C268.277 261.119 267.126 262.017 265.8 263.077C265.466 263.495 265.132 263.912 264.788 264.342C263.724 265.672 262.572 266.57 261.246 267.631C260.912 268.048 260.578 268.466 260.234 268.896C259.17 270.226 258.019 271.123 256.693 272.184C256.359 272.601 256.025 273.019 255.681 273.449C254.617 274.779 253.466 275.677 252.14 276.737C251.806 277.155 251.472 277.572 251.128 278.002C250.064 279.332 248.912 280.23 247.586 281.291C246.897 282.122 246.221 282.964 245.563 283.82C244.741 284.737 244.741 284.737 244.045 285.338C243.711 285.338 243.377 285.338 243.033 285.338C242.887 285.641 242.741 285.943 242.59 286.255C242.021 287.362 242.021 287.362 241.009 288.88C240.675 288.88 240.342 288.88 239.997 288.88C239.831 289.38 239.664 289.881 239.492 290.397C239.158 290.397 238.824 290.397 238.48 290.397C238.313 290.898 238.146 291.399 237.974 291.915C237.64 291.915 237.306 291.915 236.962 291.915C236.795 292.416 236.628 292.917 236.456 293.433C236.122 293.433 235.788 293.433 235.444 293.433C235.277 293.934 235.11 294.435 234.938 294.951C234.604 294.951 234.27 294.951 233.926 294.951C233.759 295.451 233.592 295.952 233.42 296.468C233.087 296.468 232.753 296.468 232.409 296.468C232.242 296.969 232.075 297.47 231.903 297.986C231.569 297.986 231.235 297.986 230.891 297.986C230.724 298.487 230.557 298.988 230.385 299.504C230.051 299.504 229.717 299.504 229.373 299.504C229.206 300.005 229.039 300.506 228.867 301.022C228.533 301.022 228.199 301.022 227.855 301.022C227.688 301.523 227.521 302.023 227.349 302.539C227.015 302.539 226.682 302.539 226.338 302.539C226.171 303.04 226.004 303.541 225.832 304.057C225.498 304.057 225.164 304.057 224.82 304.057C224.653 304.558 224.486 305.059 224.314 305.575C223.98 305.575 223.646 305.575 223.302 305.575C223.135 306.076 222.968 306.577 222.796 307.093C222.462 307.093 222.128 307.093 221.784 307.093C221.617 307.594 221.45 308.094 221.278 308.61C220.944 308.61 220.61 308.61 220.266 308.61C220.1 309.111 219.933 309.612 219.761 310.128C219.427 310.128 219.093 310.128 218.749 310.128C218.582 310.629 218.415 311.13 218.243 311.646C217.909 311.646 217.575 311.646 217.231 311.646C217.064 312.147 216.897 312.648 216.725 313.164C216.391 313.164 216.057 313.164 215.713 313.164C215.546 313.665 215.379 314.166 215.207 314.682C214.873 314.682 214.539 314.682 214.195 314.682C214.028 315.182 213.861 315.683 213.689 316.199C213.356 316.199 213.022 316.199 212.678 316.199C212.511 316.7 212.344 317.201 212.172 317.717C211.838 317.717 211.504 317.717 211.16 317.717C210.993 318.218 210.826 318.719 210.654 319.235C210.32 319.235 209.986 319.235 209.642 319.235C209.475 319.736 209.308 320.237 209.136 320.753C208.802 320.753 208.468 320.753 208.124 320.753C207.957 321.254 207.79 321.754 207.618 322.27C207.284 322.27 206.951 322.27 206.607 322.27C206.44 322.771 206.273 323.272 206.101 323.788C205.767 323.788 205.433 323.788 205.089 323.788C204.922 324.289 204.755 324.79 204.583 325.306C204.249 325.306 203.915 325.306 203.571 325.306C203.404 325.807 203.237 326.308 203.065 326.824C202.731 326.824 202.397 326.824 202.053 326.824C201.886 327.325 201.719 327.825 201.547 328.341C201.213 328.341 200.879 328.341 200.535 328.341C200.368 328.842 200.202 329.343 200.03 329.859C199.696 329.859 199.362 329.859 199.018 329.859C198.851 330.36 198.684 330.861 198.512 331.377C198.178 331.377 197.844 331.377 197.5 331.377C197.333 331.878 197.166 332.379 196.994 332.895C196.66 332.895 196.326 332.895 195.982 332.895C195.982 333.396 195.982 333.897 195.982 334.413C195.163 335.306 194.338 336.119 193.453 336.942C191.036 339.293 191.036 339.293 188.836 341.843C187.797 343.124 186.643 344.009 185.358 345.037C184.857 345.663 184.857 345.663 184.346 346.302C183.282 347.632 182.13 348.529 180.804 349.59C180.304 350.216 180.304 350.216 179.793 350.855C178.729 352.185 177.577 353.083 176.251 354.144C175.917 354.561 175.583 354.978 175.239 355.408C174.175 356.738 173.024 357.636 171.698 358.697C171.364 359.114 171.03 359.532 170.686 359.962C169.622 361.292 168.471 362.189 167.145 363.25C166.811 363.668 166.477 364.085 166.133 364.515C165.069 365.845 163.917 366.743 162.591 367.803C162.257 368.221 161.923 368.638 161.579 369.068C160.515 370.398 159.364 371.296 158.038 372.357C157.704 372.774 157.37 373.192 157.026 373.622C155.962 374.952 154.811 375.849 153.485 376.91C153.151 377.327 152.817 377.745 152.473 378.175C151.409 379.505 150.257 380.403 148.931 381.463C148.597 381.881 148.263 382.298 147.919 382.728C146.858 384.055 145.706 384.968 144.378 386.017C144.044 386.518 143.71 387.018 143.366 387.534C143.032 387.534 142.698 387.534 142.354 387.534C142.119 388.004 142.119 388.004 141.88 388.483C141.532 389.179 141.184 389.874 140.836 390.57C140.503 390.57 140.169 390.57 139.825 390.57C139.658 391.071 139.491 391.572 139.319 392.088C138.985 392.088 138.651 392.088 138.307 392.088C138.14 392.589 137.973 393.089 137.801 393.606C135.616 396.02 135.616 396.02 133.754 396.641C133.587 397.142 133.42 397.643 133.248 398.159C132.914 398.159 132.58 398.159 132.236 398.159C132.069 398.66 131.902 399.161 131.73 399.677C131.396 399.677 131.062 399.677 130.718 399.677C130.551 400.177 130.384 400.678 130.212 401.194C129.878 401.194 129.544 401.194 129.2 401.194C129.033 401.695 128.866 402.196 128.694 402.712C128.36 402.712 128.027 402.712 127.682 402.712C127.516 403.213 127.349 403.714 127.177 404.23C126.843 404.23 126.509 404.23 126.165 404.23C125.998 404.731 125.831 405.232 125.659 405.748C125.325 405.748 124.991 405.748 124.647 405.748C124.48 406.249 124.313 406.749 124.141 407.265C123.807 407.265 123.473 407.265 123.129 407.265C122.962 407.766 122.795 408.267 122.623 408.783C122.289 408.783 121.955 408.783 121.611 408.783C121.444 409.284 121.278 409.785 121.105 410.301C120.378 411.155 120.378 411.155 119.588 411.819C119.254 411.819 118.92 411.819 118.576 411.819C118.409 412.32 118.242 412.82 118.07 413.337C117.736 413.337 117.402 413.337 117.058 413.337C116.891 413.837 116.724 414.338 116.552 414.854C116.051 414.854 115.55 414.854 115.034 414.854C115.034 415.188 115.034 415.522 115.034 415.866C113.518 416.372 112.492 416.442 110.907 416.454C110.375 416.458 109.843 416.463 109.295 416.468C108.721 416.47 108.148 416.473 107.556 416.475C106.967 416.478 106.377 416.481 105.77 416.484C104.523 416.488 103.276 416.492 102.029 416.494C100.117 416.499 98.2055 416.514 96.2935 416.53C95.0834 416.533 93.8732 416.536 92.6631 416.538C92.0892 416.544 91.5153 416.551 90.9239 416.557C90.3921 416.555 89.8603 416.554 89.3124 416.552C88.844 416.554 88.3756 416.556 87.893 416.558C86.7027 416.372 86.7027 416.372 85.792 415.777C84.9475 414.493 84.999 413.578 85.0046 412.046C85.0031 411.47 85.0016 410.894 85 410.3C85.0094 409.363 85.0094 409.363 85.0189 408.408C85.0204 407.441 85.0204 407.441 85.0218 406.454C85.0252 405.085 85.0314 403.717 85.0426 402.348C85.0568 400.613 85.0625 398.877 85.0647 397.142C85.0674 395.469 85.0747 393.796 85.0822 392.123C85.0843 391.509 85.0865 390.895 85.0887 390.262C85.1816 378.937 85.1816 378.937 86.1968 377.922C86.3991 376.562 86.5769 375.208 86.7343 373.843C86.7803 373.459 86.8263 373.075 86.8737 372.68C86.9873 371.729 87.0982 370.778 87.2086 369.827C87.5425 369.827 87.8764 369.827 88.2205 369.827C88.3874 367.824 88.5544 365.82 88.7264 363.756C89.0603 363.756 89.3942 363.756 89.7382 363.756C89.9052 362.253 90.0722 360.751 90.2442 359.203C90.5781 359.203 90.912 359.203 91.256 359.203C91.303 358.514 91.303 358.514 91.3509 357.811C91.7966 354.572 93.3457 351.482 94.7975 348.578C95.1314 348.578 95.4653 348.578 95.8093 348.578C95.9763 347.577 96.1432 346.575 96.3152 345.543C96.6492 345.543 96.9831 345.543 97.3271 345.543C97.494 344.875 97.661 344.207 97.833 343.519C98.1669 343.519 98.5008 343.519 98.8449 343.519C99.0118 342.517 99.1788 341.516 99.3508 340.484C99.6847 340.484 100.019 340.484 100.363 340.484C100.509 340.098 100.655 339.711 100.805 339.314C101.374 337.954 101.374 337.954 102.386 336.436C102.72 336.436 103.054 336.436 103.398 336.436C103.565 335.768 103.732 335.101 103.904 334.413C104.238 334.413 104.572 334.413 104.916 334.413C105.031 334.058 105.146 333.703 105.264 333.337C106.099 331.508 107.087 330.321 108.457 328.847C108.791 328.847 109.125 328.847 109.469 328.847C109.636 328.18 109.803 327.512 109.975 326.824C110.309 326.824 110.643 326.824 110.987 326.824C111.154 326.323 111.321 325.822 111.493 325.306C111.827 325.306 112.161 325.306 112.505 325.306C112.672 324.805 112.839 324.304 113.011 323.788C113.345 323.788 113.679 323.788 114.023 323.788C114.19 323.287 114.356 322.786 114.528 322.27C114.862 322.27 115.196 322.27 115.54 322.27C115.707 321.77 115.874 321.269 116.046 320.753C116.38 320.753 116.714 320.753 117.058 320.753C117.225 320.252 117.392 319.751 117.564 319.235C117.898 319.235 118.232 319.235 118.576 319.235C118.743 318.734 118.91 318.233 119.082 317.717C119.416 317.717 119.75 317.717 120.094 317.717C120.261 317.216 120.428 316.715 120.6 316.199C120.933 316.199 121.267 316.199 121.611 316.199C121.778 315.698 121.945 315.198 122.117 314.682C122.451 314.682 122.785 314.682 123.129 314.682C123.296 314.181 123.463 313.68 123.635 313.164C123.969 313.164 124.303 313.164 124.647 313.164C124.647 312.663 124.647 312.162 124.647 311.646C125.466 310.78 126.314 309.94 127.177 309.116C127.594 308.605 128.011 308.094 128.441 307.567C129.622 306.18 130.817 305.185 132.236 304.057C132.737 303.431 132.737 303.431 133.248 302.792C134.312 301.462 135.463 300.565 136.789 299.504C137.29 298.878 137.29 298.878 137.801 298.239C138.865 296.909 140.016 296.011 141.342 294.951C141.843 294.324 141.843 294.324 142.354 293.686C143.418 292.356 144.57 291.458 145.896 290.397C146.397 289.771 146.397 289.771 146.908 289.132C147.972 287.802 149.123 286.905 150.449 285.844C150.95 285.218 150.95 285.218 151.461 284.579C152.521 283.254 153.672 282.333 155.002 281.291C155.169 280.957 155.336 280.623 155.508 280.279C155.842 280.279 156.176 280.279 156.52 280.279C156.666 279.976 156.812 279.674 156.963 279.362C157.532 278.255 157.532 278.255 158.544 276.737C158.878 276.737 159.212 276.737 159.556 276.737C159.723 276.236 159.89 275.736 160.062 275.22C160.395 275.22 160.729 275.22 161.073 275.22C161.24 274.719 161.407 274.218 161.579 273.702C161.913 273.702 162.247 273.702 162.591 273.702C162.758 273.201 162.925 272.7 163.097 272.184C163.431 272.184 163.765 272.184 164.109 272.184C164.276 271.683 164.443 271.182 164.615 270.666C164.949 270.666 165.283 270.666 165.627 270.666C165.794 270.165 165.961 269.665 166.133 269.149C166.467 269.149 166.8 269.149 167.145 269.149C167.311 268.648 167.478 268.147 167.65 267.631C167.984 267.631 168.318 267.631 168.662 267.631C168.829 267.13 168.996 266.629 169.168 266.113C169.502 266.113 169.836 266.113 170.18 266.113C170.347 265.612 170.514 265.111 170.686 264.595C171.02 264.595 171.354 264.595 171.698 264.595C171.865 264.094 172.032 263.593 172.204 263.077C172.538 263.077 172.872 263.077 173.216 263.077C173.383 262.577 173.55 262.076 173.722 261.56C174.055 261.56 174.389 261.56 174.733 261.56C174.9 261.059 175.067 260.558 175.239 260.042C175.573 260.042 175.907 260.042 176.251 260.042C176.418 259.541 176.585 259.04 176.757 258.524C177.091 258.524 177.425 258.524 177.769 258.524C177.936 258.023 178.103 257.522 178.275 257.006C178.609 257.006 178.943 257.006 179.287 257.006C179.454 256.505 179.621 256.005 179.793 255.489C180.127 255.489 180.46 255.489 180.804 255.489C180.971 254.988 181.138 254.487 181.31 253.971C181.644 253.971 181.978 253.971 182.322 253.971C182.489 253.47 182.656 252.969 182.828 252.453C183.162 252.453 183.496 252.453 183.84 252.453C184.007 251.952 184.174 251.451 184.346 250.935C184.68 250.935 185.014 250.935 185.358 250.935C185.525 250.434 185.692 249.934 185.864 249.418C186.198 249.418 186.531 249.418 186.876 249.418C186.876 248.917 186.876 248.416 186.876 247.9C187.508 247.204 187.508 247.204 188.393 246.382C188.863 245.772 188.863 245.772 189.342 245.149C190.439 243.825 191.608 242.899 192.947 241.829C193.447 241.203 193.447 241.203 193.958 240.564C195.023 239.234 196.174 238.336 197.5 237.275C198.001 236.649 198.001 236.649 198.512 236.011C199.576 234.68 200.727 233.783 202.053 232.722C202.554 232.096 202.554 232.096 203.065 231.457C204.125 230.133 205.276 229.211 206.607 228.169C206.773 227.835 206.94 227.501 207.112 227.157C207.446 227.157 207.78 227.157 208.124 227.157C208.256 226.854 208.388 226.55 208.524 226.238C209.178 225.058 209.791 224.477 210.844 223.647C212.351 222.41 213.491 221.101 214.701 219.568C215.539 218.886 216.381 218.21 217.231 217.544C217.398 217.21 217.565 216.877 217.737 216.532C218.071 216.532 218.405 216.532 218.749 216.532C218.895 216.23 219.041 215.927 219.191 215.616C219.761 214.509 219.761 214.509 220.772 212.991C221.106 212.991 221.44 212.991 221.784 212.991C221.951 212.49 222.118 211.989 222.29 211.473C222.624 211.473 222.958 211.473 223.302 211.473C223.469 210.972 223.636 210.472 223.808 209.956C224.142 209.956 224.476 209.956 224.82 209.956C224.987 209.455 225.154 208.954 225.326 208.438C225.66 208.438 225.994 208.438 226.338 208.438C226.504 207.937 226.671 207.436 226.843 206.92C227.177 206.92 227.511 206.92 227.855 206.92C228.022 206.419 228.189 205.918 228.361 205.402C228.695 205.402 229.029 205.402 229.373 205.402C229.54 204.901 229.707 204.4 229.879 203.884C230.213 203.884 230.547 203.884 230.891 203.884C231.058 203.384 231.225 202.883 231.397 202.367C231.731 202.367 232.065 202.367 232.409 202.367C232.576 201.866 232.743 201.365 232.915 200.849C233.248 200.849 233.582 200.849 233.926 200.849C234.093 200.348 234.26 199.847 234.432 199.331C234.766 199.331 235.1 199.331 235.444 199.331C235.611 198.83 235.778 198.329 235.95 197.813C236.284 197.813 236.618 197.813 236.962 197.813C237.087 197.532 237.212 197.25 237.341 196.96C238.824 194.216 241.015 192.034 243.539 190.225C243.873 190.225 244.207 190.225 244.551 190.225C244.718 189.724 244.885 189.223 245.057 188.707C245.391 188.707 245.725 188.707 246.069 188.707C246.236 188.206 246.402 187.705 246.574 187.189C246.908 187.189 247.242 187.189 247.586 187.189C247.753 186.688 247.92 186.187 248.092 185.671C248.426 185.671 248.76 185.671 249.104 185.671C249.271 185.17 249.438 184.669 249.61 184.153C249.944 184.153 250.278 184.153 250.622 184.153C250.622 183.653 250.622 183.152 250.622 182.636C251.441 181.769 252.289 180.93 253.151 180.106C253.569 179.595 253.986 179.083 254.416 178.557C255.597 177.169 256.792 176.174 258.211 175.047C258.898 174.214 259.573 173.371 260.234 172.517C260.909 171.843 261.584 171.168 262.258 170.494C262.592 169.993 262.926 169.492 263.27 168.976C263.604 168.976 263.938 168.976 264.282 168.976C264.449 168.475 264.616 167.974 264.788 167.458C265.122 167.458 265.456 167.458 265.8 167.458C265.967 166.957 266.133 166.456 266.305 165.94C266.639 165.94 266.973 165.94 267.317 165.94C267.484 165.439 267.651 164.938 267.823 164.422C268.157 164.422 268.491 164.422 268.835 164.422C269.002 163.922 269.169 163.421 269.341 162.905C269.675 162.905 270.009 162.905 270.353 162.905C270.52 162.404 270.687 161.903 270.859 161.387C271.193 161.387 271.527 161.387 271.871 161.387C271.871 161.053 271.871 160.719 271.871 160.375C274.132 158.351 274.132 158.351 275.412 158.351C275.412 158.017 275.412 157.684 275.412 157.34C275.074 157.339 274.737 157.339 274.389 157.338C254.389 157.309 234.389 157.271 214.389 157.224C211.99 157.218 209.59 157.212 207.191 157.207C206.713 157.206 206.235 157.204 205.743 157.203C198 157.185 190.258 157.173 182.515 157.162C174.575 157.151 166.634 157.135 158.694 157.112C153.791 157.099 148.889 157.09 143.986 157.087C140.628 157.084 137.269 157.076 133.911 157.063C131.971 157.056 130.031 157.052 128.091 157.054C125.992 157.056 123.892 157.046 121.792 157.035C121.175 157.038 120.557 157.04 119.921 157.043C119.361 157.038 118.801 157.033 118.224 157.028C117.496 157.027 117.496 157.027 116.754 157.025C115.54 156.834 115.54 156.834 114.625 156.145C113.728 154.911 113.843 153.925 113.857 152.415C113.859 151.842 113.862 151.269 113.864 150.68C113.875 150.081 113.885 149.482 113.896 148.865C113.899 148.274 113.901 147.684 113.904 147.075C113.976 139.173 113.976 139.173 115.034 138.114C115.199 137.274 115.343 136.43 115.477 135.585C115.932 132.949 116.636 130.501 117.564 127.996C117.898 127.996 118.232 127.996 118.576 127.996C118.743 126.66 118.91 125.325 119.082 123.949C119.416 123.949 119.75 123.949 120.094 123.949C120.261 122.947 120.428 121.945 120.6 120.913C120.933 120.913 121.267 120.913 121.611 120.913C121.683 120.375 121.683 120.375 121.756 119.826C122.181 118.13 122.893 116.992 123.856 115.538C124.169 115.062 124.481 114.585 124.803 114.095C125.085 113.674 125.368 113.252 125.659 112.818C125.993 112.317 126.327 111.817 126.671 111.301C127.005 111.301 127.338 111.301 127.682 111.301C127.933 110.549 127.933 110.549 128.188 109.783C128.522 109.783 128.856 109.783 129.2 109.783C129.451 109.031 129.451 109.031 129.706 108.265C130.04 108.265 130.374 108.265 130.718 108.265C130.968 107.514 130.968 107.514 131.224 106.747C132.055 106.222 132.9 105.717 133.754 105.229C134.025 104.948 134.296 104.666 134.576 104.376C135.271 103.712 135.271 103.712 136.789 103.712C136.789 103.378 136.789 103.044 136.789 102.7C137.217 102.491 137.645 102.282 138.086 102.067C139.319 101.44 140.455 100.798 141.627 100.075C143.293 99.1968 144.065 98.9365 145.896 99.1584C145.896 98.8244 145.896 98.4905 145.896 98.1465C149.785 96.957 153.467 95.9613 157.532 95.6169C158.392 94.7565 159.47 95.0486 160.618 95.0447Z" fill="#2B2C2A" stroke="#2C2B2C" stroke-width="2" mask="url(#path-2-inside-2_0_1)"/>
</svg>
